<?xml version="1.0" encoding="UTF-8" standalone="no"?>
<!-- Created with Inkscape (http://www.inkscape.org/) -->

<svg
   width="512"
   height="512"
   viewBox="0 0 512 512"
   version="1.2"
   baseProfile="tiny-ps"
   xmlns="http://www.w3.org/2000/svg">
   <title>Graves</title>
   <sodipodi:namedview
     id="namedview7"
     pagecolor="#ffffff"
     bordercolor="#000000"
     borderopacity="0.25"
     inkscape:showpageshadow="2"
     inkscape:pageopacity="0.0"
     inkscape:pagecheckerboard="0"
     inkscape:deskcolor="#d1d1d1"
     inkscape:document-units="px"
     showgrid="false"
     inkscape:zoom="1.5273438"
     inkscape:cx="159.42711"
     inkscape:cy="256"
     inkscape:window-width="1725"
     inkscape:window-height="938"
     inkscape:window-x="0"
     inkscape:window-y="23"
     inkscape:window-maximized="0"
     inkscape:current-layer="layer1" /><defs
     id="defs2" /><g
     inkscape:label="Layer 1"
     inkscape:groupmode="layer"
     id="layer1"><g
       id="g317"
       transform="matrix(1.815668,0,0,1.9683528,-208.811,-247.89832)"><path
         style="fill:#fefefe;stroke-width:0.32"
         d="M 136.8,256 V 214.08 H 256 375.19999 V 256 297.92 H 256 136.8 Z"
         id="path333" /><path
         style="fill:#fee8f9;stroke-width:0.32"
         d="m 152.96,297.6 c -0.528,-0.13436 -1.44889,-0.26132 -2.04642,-0.28214 -1.47035,-0.0512 -5.26455,-1.93801 -7.28334,-3.62184 -2.00777,-1.67463 -3.92223,-3.96349 -5.05313,-6.04134 -1.65339,-3.03781 -2.15616,-9.71192 -1.18049,-15.67059 0.34868,-2.12952 1.98323,-5.47711 4.03082,-8.25519 0.82337,-1.11711 1.45102,-2.0621 1.39479,-2.09999 -2.55924,-1.72448 -4.4273,-3.19199 -4.79892,-3.76996 -1.64494,-2.55829 -1.437,-9.69181 0.3494,-11.98625 0.98735,-1.26815 3.96979,-3.2294 5.57106,-3.66352 0.73492,-0.19925 1.53792,-0.42163 1.78443,-0.49418 0.30069,-0.0885 -0.0813,-0.66421 -1.16073,-1.74929 -3.43608,-3.45414 -4.70596,-8.36162 -3.43083,-13.25848 0.93564,-3.59311 3.65474,-7.07392 7.34799,-9.40642 3.01927,-1.90684 4.15738,-2.28981 8.13026,-2.73576 5.31847,-0.597 9.71805,-0.0651 12.54624,1.51681 1.12138,0.62722 2.58529,1.57476 3.25314,2.10564 l 1.21427,0.96524 1.98759,-1.5044 c 3.50675,-2.65424 4.60569,-3.02251 9.09114,-3.04655 3.84094,-0.0206 3.93048,-0.005 5.27526,0.94053 2.00777,1.41111 2.81854,2.77912 2.8122,4.745 -0.01,3.11725 -2.25325,5.63268 -5.02309,5.63268 -1.9484,0 -2.46257,-0.32283 -5.22913,-3.28324 l -2.41749,-2.58688 -1.90251,-0.11894 c -2.37629,-0.14856 -3.0636,0.21203 -2.40032,1.2593 2.86909,4.53008 3.38212,6.19195 3.14989,10.20355 -0.18005,3.1102 -1.23036,5.35848 -3.77205,8.07441 -2.20393,2.35501 -4.99795,4.08143 -8.48003,5.23979 -2.26524,0.75356 -3.07584,0.85394 -7.04,0.87181 -4.33198,0.0195 -4.57516,-0.0155 -7.36,-1.06138 -3.54445,-1.3311 -5.33339,-1.53437 -7.62947,-0.86688 -2.98247,0.86703 -4.19647,3.1804 -2.94202,5.60623 0.63825,1.23425 1.92079,2.26 5.48575,4.3874 l 3.02557,1.80552 3.43009,-1.62189 c 5.41511,-2.56048 8.55072,-3.19326 17.66807,-3.56548 8.60095,-0.35115 9.72571,-0.88466 10.67475,-5.06342 0.33075,-1.4563 0.54603,-1.8399 1.03256,-1.8399 0.5908,0 0.6147,0.32969 0.6147,8.48 0,8.26487 -0.0162,8.48 -0.6396,8.48 -0.54746,0 -0.67653,-0.29929 -0.896,-2.07784 -0.57133,-4.62993 -2.47425,-5.81884 -10.04943,-6.27873 -3.86502,-0.23465 -8.76545,0.22318 -12.43542,1.1618 -2.49463,0.63802 -7.18021,2.65749 -7.17857,3.09395 7.4e-4,0.19843 27.88805,14.95046 29.09792,15.39243 0.13793,0.0504 0.86807,-0.85582 1.62253,-2.0138 2.49838,-3.83468 5.5164,-5.88793 9.60751,-6.53632 3.47061,-0.55005 6.95231,0.28203 8.74323,2.08951 4.06064,4.0982 2.77462,12.01198 -2.59397,15.9626 -4.37178,3.21708 -10.21619,3.55065 -16.66312,0.95103 -1.49976,-0.60475 -2.75506,-1.06469 -2.78955,-1.02209 -0.0345,0.0426 -0.89764,1.44546 -1.91811,3.11746 -2.28336,3.74121 -3.2738,5.07315 -5.5611,7.47859 -1.81112,1.90468 -5.55732,4.60097 -7.25594,5.2224 -2.49239,0.91183 -9.42614,1.34569 -11.81038,0.73901 z m 16.03717,-8.03475 c 1.91285,-0.59082 2.46748,-0.95901 4.45886,-2.96 2.02349,-2.03325 4.87524,-6.14065 4.51414,-6.50175 -0.27106,-0.27106 -33.19538,-17.3835 -33.44584,-17.3835 -0.30434,0 -2.66825,3.13662 -3.74404,4.96789 -1.12693,1.9183 -1.84106,5.05583 -1.59642,7.01385 1.12454,9.00048 19.36048,18.09205 29.8133,14.86351 z M 198.72,275.87332 c 2.19056,-1.0142 3.13809,-2.302 3.29556,-4.47909 0.17791,-2.45958 -0.32663,-3.89487 -1.85432,-5.27504 -1.48831,-1.3446 -2.64158,-1.60213 -6.33623,-1.41494 -3.05267,0.15467 -4.57753,0.74096 -6.64234,2.55389 -1.21303,1.06505 -3.66267,4.45217 -3.66267,5.06437 0,0.39395 3.00001,1.83492 6.72,3.22776 2.98642,1.11818 6.47551,1.2511 8.48,0.32305 z m -33.7454,-32.57815 c 4.26569,-1.89324 6.37831,-8.29759 5.50196,-16.67901 -0.60704,-5.80574 -2.0601,-8.53737 -5.41431,-10.17843 -1.59362,-0.77969 -2.16862,-0.88295 -4.91664,-0.88295 -2.9088,0 -3.25538,0.072 -5.30879,1.10261 -2.68888,1.34958 -3.98434,2.94927 -4.99161,6.16388 -0.60805,1.94053 -0.7204,3.02176 -0.72098,6.93873 -8e-4,5.36379 0.40274,7.53346 1.84959,9.94482 1.92528,3.20871 4.9234,4.52857 9.84078,4.3322 1.82972,-0.0731 3.20626,-0.31855 4.16,-0.74185 z M 287.37448,257.52 c -0.23807,-0.572 -3.76404,-9.24381 -7.8355,-19.27069 -4.07145,-10.02688 -7.6572,-18.66655 -7.96833,-19.19928 -0.77429,-1.32577 -1.78337,-1.75977 -4.10448,-1.76531 -1.08561,-0.003 -2.20161,-0.0921 -2.48,-0.19896 -0.77385,-0.29695 -0.60293,-1.06481 0.31466,-1.41368 0.8853,-0.33659 20.60286,-0.43635 21.81916,-0.11039 0.8282,0.22195 0.97017,1.23384 0.21383,1.52407 -0.27839,0.10683 -1.51186,0.19424 -2.74104,0.19424 -2.69357,0 -3.47279,0.34749 -3.47279,1.54869 0,0.48739 1.51637,4.55033 3.3697,9.02874 1.85334,4.47841 3.58134,8.95535 3.84,9.94876 0.66371,2.54896 0.58593,6.13931 -0.20469,9.44854 -0.79741,3.33767 -0.60947,7.78527 0.32898,7.78527 0.12403,0 3.71676,-8.13027 7.98384,-18.06726 8.07536,-18.80556 8.11052,-18.90965 6.58489,-19.49509 -0.28328,-0.10871 -1.48376,-0.19765 -2.66773,-0.19765 -2.41409,0 -3.72024,-0.58669 -2.97979,-1.33846 0.30538,-0.31005 1.95508,-0.44827 6.23755,-0.5226 6.33955,-0.11004 7.84098,0.036 8.1307,0.79101 0.26253,0.68413 -0.45908,1.05936 -2.04839,1.06515 -1.62876,0.006 -2.80927,0.50421 -3.42654,1.44628 -0.25324,0.38651 -4.01251,9.0272 -8.35392,19.20155 -4.3414,10.17434 -8.12289,18.97991 -8.4033,19.56794 -0.66497,1.39445 -1.56345,1.4067 -2.13681,0.0291 z m -50.40395,0.20772 c -5.83495,-1.56811 -8.74807,-6.69519 -6.92416,-12.18649 1.24338,-3.74345 4.37017,-5.81757 12.19363,-8.08847 8.76579,-2.54443 10.75419,-3.66358 12.38112,-6.96856 1.00209,-2.03569 1.05767,-2.33156 1.03634,-5.51762 -0.0375,-5.60806 -1.33551,-8.57171 -4.08082,-9.3177 -1.75907,-0.47799 -5.90216,-0.18576 -7.28751,0.51402 -1.59801,0.80722 -2.78932,2.03627 -3.02828,3.12425 -0.18918,0.86134 -0.0305,1.12318 1.58445,2.6142 1.66208,1.53455 1.79461,1.76198 1.7935,3.07782 -0.002,2.80311 -2.18291,4.69464 -5.04066,4.37253 -1.54223,-0.17383 -2.6921,-0.87357 -3.73837,-2.27494 -0.8952,-1.19902 -0.91053,-4.32063 -0.03,-6.11676 0.91683,-1.87023 3.5696,-4.37976 5.77026,-5.45868 1.91733,-0.94001 1.92798,-0.94128 7.68,-0.91286 5.4921,0.0271 5.84562,0.0673 7.601,0.86284 2.56159,1.16095 5.07205,3.62406 6.15636,6.04023 0.79037,1.76117 0.86305,2.22575 0.73705,4.71116 -0.0997,1.96698 -0.33301,3.13045 -0.81392,4.05914 -0.77905,1.5044 -2.81679,3.4474 -4.41458,4.20933 -0.60825,0.29006 -1.10592,0.62191 -1.10592,0.73745 0,0.11555 0.58496,0.38534 1.2999,0.59954 1.58601,0.47518 3.54938,2.19242 4.34394,3.79937 0.49411,0.99931 0.61626,2.24688 0.75407,7.7017 0.16062,6.35788 0.18199,6.52343 0.91872,7.12 0.52497,0.4251 1.30287,0.62229 2.55882,0.64864 2.53505,0.0532 3.69914,0.35569 3.82191,0.99317 0.15613,0.81071 -1.0106,0.98232 -5.62851,0.82785 -3.09512,-0.10353 -4.33687,-0.2744 -5.18885,-0.71402 -2.33343,-1.20406 -3.86442,-3.24388 -4.34087,-5.78358 l -0.23431,-1.24896 -0.75815,1.71789 c -1.56649,3.54949 -4.34367,5.77118 -8.59996,6.87981 -2.35458,0.61329 -7.0929,0.60207 -9.41617,-0.0223 z m 11.54923,-2.54144 c 3.96324,-1.39743 6.34518,-6.26328 6.35551,-12.98313 0.004,-2.60475 -0.0942,-3.20266 -0.64028,-3.89683 -1.51955,-1.9318 -4.62688,-1.89571 -8.89258,0.10326 -3.42656,1.60574 -4.83268,2.74186 -5.99875,4.84688 -0.85964,1.55185 -0.94366,1.97499 -0.94366,4.75208 0,3.92188 0.83561,5.83487 3.03645,6.95146 1.71982,0.87254 4.95715,0.97596 7.08331,0.22628 z m 75.63581,2.58809 c -4.64267,-0.8437 -8.7944,-3.06238 -11.81852,-6.31577 -6.61998,-7.1219 -7.43849,-18.58115 -1.92829,-26.99643 2.62815,-4.01376 7.16717,-7.60759 11.48441,-9.09294 1.53978,-0.52976 2.69949,-0.64923 6.30236,-0.64923 3.8335,0 4.68836,0.0991 6.48709,0.752 4.29682,1.55966 7.65215,4.55769 9.59415,8.57249 l 1.08379,2.24059 0.21678,-1.44558 c 0.54456,-3.63139 3.53921,-7.39243 7.30431,-9.17362 1.8942,-0.89611 2.21508,-0.94539 6.15725,-0.94563 3.6411,-2.2e-4 4.47463,0.10489 6.69471,0.84425 2.23873,0.74557 2.66433,0.79802 3.63288,0.44779 1.66656,-0.60263 1.81936,-0.2426 1.93643,4.56279 0.13291,5.45586 -0.56885,7.51564 -1.68472,4.94492 -2.57263,-5.92681 -3.7354,-7.51512 -6.41821,-8.76709 -1.94675,-0.90847 -5.54527,-1.01976 -8.13231,-0.25149 -2.03112,0.60318 -4.31284,2.57856 -4.84662,4.19593 -0.56058,1.69858 -0.25808,4.89482 0.57382,6.06313 1.02842,1.44428 3.75559,2.74339 10.64782,5.0722 7.52386,2.54223 10.4046,4.10589 12.19403,6.61891 1.17169,1.64549 1.66304,5.05911 1.21315,8.42841 -0.45748,3.42624 -1.1093,4.84988 -3.15897,6.89955 -2.6897,2.68971 -7.23419,4.44456 -11.53092,4.45265 -1.87498,0.004 -5.66733,-0.81585 -8.7701,-1.89489 -2.24579,-0.78101 -4.42462,-0.85843 -4.9899,-0.17731 -0.52172,0.62863 -1.48007,0.6141 -1.72576,-0.0262 -0.10683,-0.27839 -0.19424,-1.95671 -0.19424,-3.7296 v -3.22344 l -1.22304,1.89227 c -3.75336,5.80718 -10.66961,8.2336 -19.10138,6.70132 z m 10.83811,-2.10453 c 3.70164,-1.38496 6.55006,-4.08164 7.73861,-7.32637 0.29484,-0.80491 0.80869,-1.70255 1.14189,-1.99476 0.3332,-0.29222 0.60802,-0.86822 0.61071,-1.28001 0.0128,-1.96085 1.29674,-1.9949 1.92709,-0.0511 2.0247,6.24351 6.31981,10.38678 11.75691,11.34126 4.11103,0.72169 8.08555,-0.70237 9.48622,-3.39886 0.96385,-1.85557 0.96498,-6.74415 0.002,-8.05654 -1.20034,-1.63561 -3.4754,-2.83721 -8.96239,-4.7336 -8.01655,-2.77064 -9.90314,-3.81176 -11.51012,-6.35185 -0.85583,-1.35277 -0.92044,-1.38942 -1.71688,-0.97381 -0.66143,0.34515 -3.95665,0.43225 -16.41304,0.43383 l -15.58552,0.002 0.80619,0.80618 c 1.34602,1.34603 2.07594,3.4731 2.39579,6.98167 0.59441,6.52038 1.50265,9.30778 3.88055,11.90958 2.68517,2.93801 4.87328,3.72554 9.72603,3.50055 1.891,-0.0877 3.55045,-0.37203 4.71604,-0.80814 z M 336.1005,226.64 c -0.10283,-4.10656 -0.21587,-4.93865 -0.86976,-6.40233 -1.37091,-3.06869 -3.40781,-4.23249 -7.41374,-4.23589 -4.2237,-0.004 -6.88544,1.67912 -8.75619,5.53551 -1.14685,2.3641 -2.10082,6.23718 -2.10082,8.52922 V 231.36 h 9.62935 9.62935 z M 194.64,256.73941 c -0.80866,-0.21132 -0.69574,-1.26839 0.16,-1.49772 0.396,-0.10612 1.692,-0.19492 2.88,-0.19732 3.70372,-0.007 3.44,1.21578 3.44,-15.95662 0,-9.82781 -0.116,-15.00498 -0.35131,-15.68 -0.42373,-1.21552 -1.13024,-1.28614 -3.96869,-0.39667 -1.056,0.33092 -2.028,0.5363 -2.16,0.4564 -0.76358,-0.46214 0.18295,-1.20878 3.68,-2.90281 2.156,-1.04441 4.99627,-2.57071 6.31172,-3.39179 4.12639,-2.57563 4.79962,-2.08854 4.82698,3.49232 l 0.0187,3.8148 0.93134,-1.87673 c 1.62405,-3.27263 3.81051,-5.66674 6.37156,-6.97666 1.21623,-0.62208 2.0468,-0.76301 4.9797,-0.84492 3.493,-0.0975 3.53349,-0.0902 5.28,0.96191 2.50524,1.50915 3.67431,3.69398 3.67761,6.87293 0.002,1.8229 -0.13368,2.47879 -0.65739,3.18023 -2.24257,3.00368 -6.10151,3.07839 -8.05385,0.15592 -1.01507,-1.51948 -0.97841,-3.72245 0.0961,-5.77751 0.9323,-1.78299 0.73644,-2.68329 -0.70281,-3.23049 -3.80156,-1.44535 -8.37201,2.48522 -10.59332,9.11023 l -0.86676,2.58509 -0.11088,12.13428 c -0.061,6.67385 -0.0329,12.44516 0.0625,12.82514 0.25126,1.00109 1.50382,1.43998 4.12379,1.44495 2.86578,0.005 3.74495,0.22978 3.74495,0.95563 0,0.31579 -0.31783,0.65053 -0.72,0.75831 -0.82416,0.22086 -21.54943,0.20338 -22.4,-0.0189 z"
         id="path331" /><path
         style="fill:#fed7f5;stroke-width:0.32"
         d="m 151.95328,297.41914 c -4.14178,-0.75407 -8.56464,-3.52189 -11.20877,-7.01443 -2.09076,-2.7616 -2.96302,-4.67271 -3.48411,-7.63361 -1.2606,-7.1629 0.20382,-13.50441 4.37536,-18.94703 0.89133,-1.16291 1.57191,-2.14806 1.51242,-2.18922 -4.86798,-3.36738 -5.38523,-3.91551 -5.97954,-6.33655 -1.06364,-4.33294 0.25882,-8.97377 3.12275,-10.95848 1.40214,-0.97168 4.68887,-2.40057 5.54861,-2.41223 0.85561,-0.0116 0.68099,-0.35283 -1.04835,-2.04859 -0.89147,-0.87416 -2.04946,-2.49041 -2.63178,-3.67328 -0.99076,-2.01251 -1.03987,-2.28638 -1.03987,-5.79899 0,-3.50119 0.0527,-3.79808 1.04779,-5.8993 1.50768,-3.1837 4.87341,-6.42505 8.4886,-8.1749 3.71334,-1.79737 7.98852,-2.40078 12.6836,-1.7902 3.4197,0.44472 5.05613,1.11433 8.35391,3.41833 0.97565,0.68164 1.87524,1.23934 1.9991,1.23934 0.12386,0 1.12561,-0.66822 2.2261,-1.48494 3.43088,-2.54619 4.98144,-3.09948 8.70469,-3.10613 3.6753,-0.007 5.09694,0.51071 6.83072,2.48538 1.86609,2.12535 1.63673,5.01445 -0.57354,7.22472 -1.45123,1.45123 -3.00971,1.88202 -4.56631,1.2622 -0.56906,-0.22659 -2.18666,-1.59974 -3.59466,-3.05144 -2.75019,-2.83555 -3.75333,-3.30739 -6.09682,-2.86775 -1.47775,0.27723 -1.66351,0.8617 -0.6872,2.1623 3.19514,4.25648 3.81457,9.77174 1.59045,14.16083 -1.0069,1.98703 -4.4995,5.50708 -6.64643,6.69867 -5.89755,3.27326 -13.22508,3.76356 -19.39968,1.29808 -1.51782,-0.60606 -3.24582,-1.10021 -3.84,-1.09812 -1.97343,0.007 -4.51431,0.8825 -5.54128,1.90947 -0.82605,0.82605 -0.97904,1.22443 -0.97904,2.54942 0,1.08703 0.20472,1.84845 0.66512,2.47384 0.77013,1.04611 4.03616,3.37529 6.79423,4.84532 l 1.91005,1.01805 2.6753,-1.323 c 5.42219,-2.6814 8.67635,-3.38627 17.5553,-3.80262 9.63936,-0.452 10.17863,-0.72393 11.72871,-5.91428 0.15768,-0.528 0.42723,-0.924 0.59899,-0.88 0.42995,0.11014 0.42234,16.05249 -0.008,16.16 -0.31118,0.0778 -0.59656,-0.91274 -0.96536,-3.35058 -0.3487,-2.30504 -2.22349,-3.7701 -5.65799,-4.42143 -2.67771,-0.50783 -11.26834,-0.4007 -14.29311,0.17824 -4.43225,0.84831 -10.18288,3.17573 -9.90518,4.00885 0.0579,0.17377 6.72849,3.76844 14.82348,7.98816 13.48592,7.02987 14.75276,7.62552 15.13141,7.11449 0.22729,-0.30676 1.09129,-1.48745 1.92,-2.62378 2.82674,-3.876 5.99953,-5.54446 10.62675,-5.58822 3.48497,-0.033 5.29599,0.62892 6.99164,2.55528 1.52902,1.73705 2.08205,3.59947 1.91312,6.44271 -0.25476,4.28759 -2.99563,8.11937 -7.22772,10.10444 -3.94005,1.84808 -9.63491,1.56316 -14.70496,-0.7357 -1.86039,-0.84355 -2.206,-0.91341 -2.4864,-0.5026 -0.17912,0.26242 -1.26168,2.0266 -2.40568,3.92039 -2.76091,4.57046 -7.10901,9.03108 -10.53889,10.81161 -3.88958,2.01916 -8.91143,2.57978 -14.30782,1.59728 z m 17.56565,-7.81365 c 1.13796,-0.4274 2.53165,-1.32246 3.65621,-2.34809 1.87205,-1.70735 4.90729,-5.97904 4.90171,-6.89846 -0.002,-0.3597 -5.17146,-3.21362 -16.8453,-9.30017 l -16.84215,-8.78123 -0.78419,0.94123 c -1.50731,1.80915 -3.26942,4.70192 -3.91469,6.42657 -0.79152,2.11552 -0.87135,5.68669 -0.16492,7.37741 2.31254,5.5347 11.85084,11.60422 20.76004,13.21027 2.61098,0.47068 7.12641,0.16379 9.23329,-0.62753 z m 28.48981,-13.14473 c 1.39216,-0.38661 3.25367,-1.90913 3.9276,-3.21237 1.0806,-2.08965 0.22698,-5.75361 -1.72268,-7.39413 -1.50656,-1.26769 -2.98358,-1.62546 -6.09616,-1.47665 -3.14715,0.15047 -5.08612,0.90553 -7.19786,2.80293 -1.21352,1.09035 -3.71964,4.60048 -3.71964,5.20983 0,0.3911 5.05145,2.74402 7.84,3.65179 2.42961,0.79093 5.05919,0.94888 6.96874,0.4186 z m -32.95669,-33.01181 c 2.08136,-0.8941 3.85694,-2.99115 4.77011,-5.63373 0.66692,-1.92999 0.73784,-2.70424 0.73784,-8.05522 0,-5.41452 -0.0655,-6.10972 -0.7667,-8.14194 -1.48976,-4.31739 -4.47711,-6.25806 -9.6333,-6.25806 -4.03291,0 -7.1833,1.34485 -8.94454,3.81828 -1.88754,2.65082 -2.838,8.44523 -2.28559,13.93399 0.54709,5.43591 1.94565,8.15275 5.07304,9.85489 2.95458,1.60808 7.92295,1.82472 11.04914,0.48179 z m 72.94832,14.32659 c -6.99012,-1.59124 -10.14631,-7.30642 -7.27545,-13.17426 1.57734,-3.22396 4.47103,-4.9049 12.31508,-7.15383 6.06759,-1.73961 9.61393,-3.43048 10.89026,-5.1924 1.37389,-1.8966 1.90974,-4.04012 1.90974,-7.63942 0,-3.56613 -0.81482,-6.78706 -1.99821,-7.89879 -2.6323,-2.47292 -8.77951,-2.17442 -11.51298,0.55905 -0.9423,0.9423 -1.20881,1.45812 -1.20881,2.33957 0,0.9428 0.21961,1.3047 1.32119,2.17717 2.15651,1.70799 2.60311,3.65269 1.30066,5.66373 -1.09301,1.68766 -4.135,2.20197 -6.06478,1.02537 -4.53421,-2.76455 -2.20375,-9.83194 4.23574,-12.84534 1.6963,-0.7938 2.56876,-0.97825 5.33747,-1.12842 6.42205,-0.34831 10.47611,0.84124 13.39876,3.93152 2.12701,2.249 2.97225,4.17293 3.00523,6.84051 0.0526,4.25435 -1.66995,7.14649 -5.37592,9.02605 l -1.95836,0.99322 1.68221,0.47196 c 2.08867,0.586 4.27707,2.4473 5.05982,4.30354 0.46892,1.112 0.60059,2.53384 0.70989,7.66554 0.16174,7.59423 0.0229,7.33402 4.05521,7.60177 2.7422,0.18209 3.2761,0.35784 2.90603,0.95663 -0.29653,0.4798 -7.92622,0.44008 -9.57603,-0.0499 -2.53311,-0.75226 -4.40334,-3.21514 -5.1704,-6.80886 -0.19909,-0.93279 -0.2315,-0.90162 -1.1429,1.09908 -1.23342,2.70761 -2.28671,4.04453 -4.08578,5.18605 -3.21516,2.04004 -8.83531,2.9433 -12.75767,2.05041 z m 10.13194,-2.27696 c 4.49453,-1.33474 7.28038,-6.87778 7.01267,-13.95322 -0.0902,-2.3831 -0.2103,-2.88669 -0.8513,-3.56864 -1.76683,-1.87971 -5.1658,-1.73473 -9.49368,0.40494 -3.37824,1.67017 -4.73157,2.84832 -5.81795,5.06487 -1.73355,3.53697 -0.95177,9.54881 1.46124,11.23688 1.95887,1.37036 4.80382,1.67198 7.68902,0.81517 z m 38.80874,0.42142 c -0.52727,-1.276 -4.08308,-10.024 -7.9018,-19.44 -3.81873,-9.416 -7.07783,-17.372 -7.24246,-17.68 -0.58497,-1.09444 -1.92633,-1.65105 -4.40295,-1.82704 -1.87321,-0.13312 -2.43385,-0.28353 -2.43385,-0.65296 0,-0.41752 1.45778,-0.48 11.2,-0.48 9.74222,0 11.2,0.0625 11.2,0.48 0,0.37534 -0.60787,0.52159 -2.78786,0.67075 -2.96564,0.20291 -3.77214,0.57196 -3.77214,1.72613 0,0.39519 1.5802,4.56332 3.51154,9.26253 3.31343,8.06199 4.49155,11.82439 4.48622,14.3271 -0.001,0.57942 -0.28923,2.25061 -0.64,3.71376 -0.70062,2.92248 -0.83794,7.06999 -0.28645,8.65198 0.19322,0.55426 0.44522,1.00715 0.56,1.00641 0.35791,-0.002 15.72869,-36.0507 15.72869,-36.8878 0,-1.2583 -0.80563,-1.64501 -3.80226,-1.82511 -2.16432,-0.13008 -2.75774,-0.26904 -2.75774,-0.64575 0,-0.41178 0.97778,-0.48 6.88,-0.48 5.90222,0 6.88,0.0682 6.88,0.48 0,0.34608 -0.49565,0.53331 -1.77658,0.67107 -0.97712,0.10509 -2.15198,0.43704 -2.61081,0.73767 -0.95622,0.62655 -0.96949,0.6557 -10.97408,24.11126 -5.37812,12.60891 -7.12271,16.4 -7.54697,16.4 -0.38355,0 -0.84419,-0.70752 -1.5105,-2.32 z m 36.57894,1.53035 c -10.00766,-2.18276 -16.48,-10.29297 -16.48,-20.65035 0,-8.49842 4.56971,-16.0057 12.15526,-19.96908 3.18898,-1.66621 5.09479,-2.11092 9.0464,-2.11092 2.8838,0 3.90355,0.14033 5.90716,0.81293 5.03938,1.69166 9.13553,5.63461 10.66363,10.26479 0.44819,1.35804 0.74478,1.05276 1.07275,-1.10417 0.42772,-2.81287 2.81931,-6.31821 5.43905,-7.97199 2.31115,-1.45896 4.49796,-2.00156 8.06677,-2.00156 2.73545,0 3.67836,0.13979 5.58703,0.82828 1.70641,0.61554 2.75928,0.80047 4.09907,0.72 l 1.80288,-0.10828 0.0892,4.62528 c 0.0491,2.54391 0.0185,4.80948 -0.0679,5.03461 -0.18151,0.473 -1.1413,0.20442 -1.1413,-0.31937 0,-0.19305 -0.63764,-1.66176 -1.41699,-3.2638 -1.76173,-3.62144 -3.47941,-5.32779 -6.1425,-6.10197 -3.49661,-1.01649 -8.19461,-0.10099 -10.48086,2.04241 -2.08343,1.95324 -2.70808,5.36523 -1.45583,7.95204 0.97883,2.02199 3.17279,3.22463 10.14338,5.56019 6.7274,2.25407 8.81948,3.20152 11.16738,5.05743 2.09635,1.65707 2.82586,2.90609 3.28774,5.62899 0.72532,4.27609 -0.5967,8.55403 -3.5249,11.40618 -4.41905,4.30429 -10.94688,5.25947 -18.69742,2.73589 -3.85362,-1.25473 -5.15545,-1.4016 -6.09884,-0.68806 -0.34164,0.2584 -0.86886,0.4744 -1.1716,0.48 -0.48775,0.009 -0.56064,-0.45447 -0.64,-4.06982 l -0.0896,-4.08 -1.09356,2.01684 c -1.86199,3.43405 -5.49723,6.21587 -9.47763,7.25263 -2.30159,0.59948 -7.84566,0.61046 -10.54881,0.0209 z m 13.05686,-2.18796 c 2.92957,-1.44788 4.68265,-3.29248 6.1825,-6.5053 0.58616,-1.25559 1.27535,-2.36334 1.53155,-2.46165 0.25619,-0.0983 0.51155,-0.655 0.56745,-1.23709 0.16523,-1.72044 0.88107,-1.23304 1.85123,1.26047 1.73626,4.46258 4.3348,7.4919 7.9489,9.26669 1.67571,0.82289 2.118,0.89449 5.52547,0.89449 3.5593,0 3.76482,-0.0376 5.26247,-0.96286 3.49136,-2.15696 4.48848,-8.23868 1.86244,-11.35955 -1.12355,-1.33526 -3.42781,-2.4333 -9.70887,-4.62653 -2.904,-1.01402 -5.82597,-2.12131 -6.49328,-2.46065 -1.54271,-0.78449 -3.53768,-2.77275 -4.32821,-4.31366 -0.59571,-1.16114 -0.62339,-1.17505 -0.98696,-0.4957 l -0.37407,0.69895 h -16.30874 -16.30874 l 1.24149,1.24149 c 1.57541,1.5754 2.14101,3.34481 2.57736,8.06287 0.56694,6.13005 1.74085,9.09097 4.6632,11.76183 2.46492,2.2528 3.78005,2.6278 8.83571,2.51943 3.94089,-0.0845 4.09585,-0.11525 6.4591,-1.28323 z m -0.16643,-27.53391 c 0.14623,-6.13127 -1.05547,-9.37762 -4.10464,-11.08848 -1.227,-0.68846 -1.82733,-0.8 -4.30579,-0.8 -2.50919,0 -3.11584,0.11581 -4.71176,0.8995 -2.25729,1.10847 -3.79423,2.85608 -4.86577,5.53274 -0.80323,2.00644 -1.78247,6.67296 -1.78247,8.4943 v 0.92271 l 9.84,-0.0846 9.84,-0.0846 z m -141.84791,28.59559 c -0.42401,-0.68606 0.27739,-0.96407 2.43227,-0.96407 2.5295,0 4.01902,-0.58544 4.29585,-1.68844 0.099,-0.39424 0.13703,-7.33962 0.0846,-15.43418 -0.0729,-11.25775 -0.19195,-14.88663 -0.50653,-15.43738 -0.51619,-0.9037 -1.59667,-0.93052 -4.01186,-0.0996 -1.72746,0.59433 -2.58567,0.47039 -1.71964,-0.24834 0.22561,-0.18724 1.63754,-0.90479 3.13763,-1.59456 1.50009,-0.68976 4.07069,-2.07245 5.71242,-3.07263 4.75696,-2.89803 5.43394,-2.42485 5.45821,3.8151 l 0.0149,3.84 1.00645,-2.4 c 0.8002,-1.90818 1.47027,-2.86526 3.26979,-4.67036 2.73653,-2.74505 4.75783,-3.64964 8.15509,-3.64964 5.1693,0 8.25561,2.63132 8.59144,7.32486 0.24929,3.48428 -1.20292,5.47972 -4.16075,5.71711 -1.99943,0.16048 -3.48901,-0.66868 -4.44995,-2.47698 -0.80369,-1.51241 -0.74475,-2.82336 0.20749,-4.61426 0.99708,-1.87526 1.02066,-2.91325 0.08,-3.52168 -3.18153,-2.05785 -7.54953,0.38311 -10.17084,5.68375 -2.29856,4.64801 -2.31128,4.7422 -2.46504,18.25789 -0.14297,12.56684 -0.084,13.26872 1.16087,13.82585 0.28325,0.12676 1.88301,0.3144 3.55501,0.41697 2.406,0.1476 3.04,0.28659 3.04,0.66649 0,0.41598 -1.50166,0.49121 -11.2586,0.56407 -7.34554,0.0548 -11.32821,-0.0286 -11.45889,-0.24 z"
         id="path329" /><path
         style="fill:#fec7f1;stroke-width:0.32"
         d="m 152.32,297.40735 c -7.54787,-1.47569 -13.77751,-7.70302 -15.08893,-15.08334 -1.16104,-6.53401 0.37121,-12.8823 4.39128,-18.19355 0.86771,-1.14639 1.57765,-2.21536 1.57765,-2.37549 0,-0.16012 -0.85023,-0.86851 -1.88941,-1.57419 -2.62246,-1.78089 -3.71209,-3.206 -4.19648,-5.48854 -0.69513,-3.27559 0.008,-6.79234 1.77083,-8.85128 1.23668,-1.44478 4.37325,-3.18036 6.30619,-3.48945 0.67268,-0.10757 1.30451,-0.32738 1.40407,-0.48846 0.0995,-0.16109 -0.44364,-0.84603 -1.2071,-1.5221 -4.36727,-3.86737 -5.63209,-10.5743 -2.9989,-15.9022 2.85068,-5.76795 9.03651,-9.57206 16.1708,-9.94457 5.81234,-0.3035 9.19319,0.65867 13.3947,3.81202 l 1.71471,1.28694 0.84529,-0.68563 c 3.8929,-3.15754 6.64265,-4.28351 10.46089,-4.28351 2.2592,0 2.82347,0.12086 4.28944,0.91874 2.12915,1.15883 3.21497,2.69278 3.21497,4.54182 0,2.9187 -2.12439,5.51544 -4.51217,5.51544 -1.80136,0 -2.36014,-0.35088 -5.08783,-3.19483 -2.76003,-2.87766 -3.97188,-3.42291 -6.30303,-2.83592 -0.76332,0.19221 -1.46515,0.47455 -1.55963,0.62742 -0.0945,0.15287 0.27802,0.93172 0.82777,1.73076 2.1602,3.13975 2.706,4.81465 2.71064,8.31817 0.004,2.97745 -0.0702,3.35683 -1.04119,5.33032 -3.1416,6.38489 -11.06562,10.33232 -19.59456,9.76125 -2.55194,-0.17087 -5.16916,-0.88017 -8.44824,-2.28956 -1.06996,-0.45988 -1.54575,-0.4847 -3.33127,-0.17377 -3.71883,0.64761 -5.18049,1.908 -5.18049,4.46714 0,1.67831 0.81108,3.0407 2.61361,4.39016 1.65522,1.23918 6.31678,3.94886 6.79336,3.94886 0.23504,0 1.79962,-0.65006 3.47684,-1.44457 5.05109,-2.39272 7.91523,-2.93504 19.19623,-3.63479 6.64626,-0.41226 8.38164,-1.34729 9.3188,-5.02098 0.22164,-0.86881 0.53757,-1.54366 0.70207,-1.49966 0.41777,0.11174 0.3971,15.42487 -0.0209,15.48937 -0.176,0.0272 -0.42924,-0.70969 -0.56275,-1.63745 -0.74397,-5.1695 -3.04116,-6.25639 -13.19725,-6.24412 -5.22527,0.006 -6.48529,0.1087 -8.96301,0.72836 -2.88966,0.72268 -8.2122,3.11545 -8.3988,3.77573 -0.0905,0.32018 29.22236,15.81983 29.87951,15.79928 0.15527,-0.005 0.8583,-0.881 1.5623,-1.94698 2.79108,-4.22621 6.11198,-6.29044 10.62705,-6.60564 4.27328,-0.29832 6.97105,0.89559 8.57733,3.79594 0.84176,1.51991 0.95429,2.03053 0.9444,4.28551 -0.0137,3.12333 -0.94306,5.40604 -3.17056,7.78741 -4.17317,4.46146 -10.56302,5.33934 -17.79704,2.44505 -1.57662,-0.63079 -2.99121,-1.06987 -3.14353,-0.97573 -0.15232,0.0941 -1.26711,1.77006 -2.4773,3.72427 -1.21019,1.95421 -2.92035,4.40438 -3.80035,5.44483 -5.53498,6.54419 -12.57495,9.06962 -20.79999,7.46152 z m 17.7984,-7.86762 c 2.21438,-1.01735 4.07509,-2.66657 5.87069,-5.20342 2.07911,-2.9374 2.56282,-4.00582 2.0397,-4.50523 -0.8889,-0.84861 -33.25239,-17.4905 -33.68841,-17.32318 -0.82173,0.31532 -3.13301,3.52289 -4.30332,5.9721 -1.01759,2.1296 -1.14738,2.68843 -1.15193,4.96 -0.004,2.06189 0.14419,2.86333 0.76229,4.11898 1.89075,3.84099 7.70903,8.43196 13.60022,10.73137 4.65733,1.81782 7.04206,2.27105 11.39236,2.16517 3.16334,-0.077 3.93249,-0.20556 5.4784,-0.91579 z m 28.99413,-13.41595 c 3.78748,-1.83039 4.65061,-6.52221 1.81029,-9.84048 -2.79021,-3.25974 -9.93781,-2.96462 -13.97133,0.57685 -1.03931,0.91253 -4.07149,5.06686 -4.07149,5.57828 0,0.24884 3.11704,1.82037 5.76697,2.90754 4.57619,1.87746 7.70844,2.11025 10.46556,0.77781 z m -33.66365,-32.77607 c 3.00034,-1.50981 4.4674,-3.97182 5.25343,-8.81626 0.65298,-4.02443 0.23726,-10.41238 -0.86079,-13.22676 -1.68571,-4.32065 -5.60206,-6.59103 -10.64192,-6.16934 -7.63524,0.63885 -10.91619,5.72467 -10.46678,16.22465 0.21583,5.04269 0.96129,7.60973 2.82452,9.72647 2.2708,2.57976 4.56641,3.4084 9.10544,3.28675 2.48857,-0.0667 3.17152,-0.21303 4.7861,-1.02551 z m 122.44539,14.35173 c -0.16998,-0.31869 -3.76949,-9.09699 -7.9989,-19.50734 -4.22942,-10.41034 -7.86826,-19.21357 -8.08631,-19.56272 -0.6772,-1.08436 -2.12163,-1.69929 -4.45011,-1.8945 -1.23142,-0.10324 -2.23896,-0.31082 -2.23896,-0.46129 0,-0.15048 4.968,-0.27359 11.04,-0.27359 7.14667,0 11.04,0.11285 11.04,0.32 0,0.176 -0.612,0.32627 -1.36,0.33394 -3.52953,0.0362 -5.6447,1.13003 -5.16414,2.67066 0.11587,0.37147 1.71087,4.33382 3.54445,8.80523 1.83358,4.4714 3.54211,8.92966 3.79674,9.90723 0.64126,2.46197 0.57851,5.60038 -0.1748,8.74267 -0.35077,1.46315 -0.63877,3.39013 -0.64,4.28219 -0.002,1.69463 0.80419,4.93808 1.22793,4.93808 0.13496,0 3.81781,-8.3308 8.18411,-18.5129 5.78403,-13.48817 7.87952,-18.69948 7.72055,-19.20034 -0.31602,-0.99572 -1.05395,-1.27835 -3.97334,-1.52182 -4.7154,-0.39325 -2.71419,-0.76494 4.1185,-0.76494 6.58176,0 8.67859,0.34924 4.9179,0.81911 -1.27787,0.15966 -2.07446,0.46889 -2.73834,1.06302 -0.72405,0.64798 -2.84039,5.29353 -9.33809,20.49793 -4.62102,10.81304 -8.56302,19.71379 -8.75999,19.77945 -0.19698,0.0657 -0.49722,-0.14137 -0.6672,-0.46007 z M 236.96,257.33705 c -2.5882,-0.86377 -3.59036,-1.46316 -4.93515,-2.95168 -1.63165,-1.80604 -2.10615,-3.08514 -2.09783,-5.65509 0.008,-2.58793 0.75897,-4.48011 2.49048,-6.27833 1.91966,-1.9936 5.10472,-3.35829 12.82249,-5.49401 5.8281,-1.61279 8.96671,-3.83198 10.11967,-7.15525 1.15705,-3.33507 0.87983,-8.9964 -0.58141,-11.87338 -0.56018,-1.10293 -1.1266,-1.64138 -2.47245,-2.35041 -1.57659,-0.83057 -1.97956,-0.90678 -4.15747,-0.78618 -2.87614,0.15925 -5.46174,1.36804 -6.61933,3.0946 -1.12991,1.68528 -0.9571,2.38601 1.07341,4.35268 1.78264,1.72658 1.80055,1.7624 1.63147,3.26249 -0.32112,2.84898 -3.06721,4.27801 -5.9531,3.09793 -1.1761,-0.48092 -1.62893,-0.89878 -2.20078,-2.03077 -0.396,-0.78389 -0.72,-1.94247 -0.72,-2.57462 0,-2.51895 2.92318,-6.38454 6.02447,-7.9667 4.15365,-2.11904 11.1477,-2.14733 15.60154,-0.0631 4.01379,1.87828 6.53398,5.54445 6.53398,9.5051 0,4.17633 -1.50102,6.68579 -5.14417,8.60021 l -2.34712,1.23338 1.60518,0.52328 c 2.50178,0.81558 3.71755,1.67396 4.76204,3.36219 l 0.96407,1.55825 0.16992,6.42619 c 0.0935,3.53441 0.27623,6.6453 0.40618,6.91308 0.45227,0.93201 1.67949,1.38504 4.1439,1.52974 1.364,0.0801 2.48,0.25725 2.48,0.3937 0,0.46559 -6.51096,0.71845 -8.40025,0.32623 -3.31505,-0.6882 -5.53643,-3.16758 -5.92476,-6.61288 -0.0879,-0.7801 -0.2665,-1.48426 -0.39682,-1.5648 -0.13032,-0.0806 -0.55022,0.71274 -0.93311,1.76286 -1.90125,5.21435 -5.83723,7.66577 -12.66505,7.88809 -2.78968,0.0908 -3.88517,-0.007 -5.28,-0.47277 z m 9.98424,-1.37648 c 2.30223,-0.48797 3.79452,-1.293 5.05224,-2.72546 1.93097,-2.19926 3.08678,-5.61553 3.39512,-10.03511 0.26066,-3.73624 -0.19413,-5.03352 -2.1116,-6.02335 -2.26047,-1.16688 -4.73896,-0.85598 -8.54644,1.07206 -4.89001,2.47621 -6.8156,5.22626 -6.81178,9.72829 0.004,4.56074 1.78283,7.33795 5.1187,7.99105 2.00944,0.3934 2.01245,0.3934 3.90376,-0.007 z m 78.40588,1.62101 c -5.04578,-0.62009 -9.10529,-2.65248 -12.57288,-6.29462 -6.17512,-6.48595 -7.43072,-15.89006 -3.25872,-24.40696 2.92976,-5.98094 9.1329,-10.8299 15.15351,-11.8454 9.18908,-1.54994 17.09649,2.84464 20.16247,11.2054 l 0.76276,2.08 0.2159,-2.17002 c 0.42033,-4.2249 3.1453,-8.23657 6.75067,-9.93826 3.80979,-1.79818 8.76376,-1.93057 13.0017,-0.34747 2.02815,0.75763 2.5406,0.83693 3.59299,0.55603 0.6751,-0.18019 1.30261,-0.25247 1.39447,-0.16062 0.27338,0.27339 0.18928,9.66034 -0.0866,9.66034 -0.13946,0 -0.80765,-1.23026 -1.48486,-2.73391 -1.57339,-3.4935 -2.72334,-5.06568 -4.55469,-6.22709 -2.93532,-1.86152 -7.6017,-1.96415 -10.95045,-0.24082 -3.6938,1.9009 -5.22795,7.09881 -2.99193,10.13705 1.17703,1.59932 3.62753,2.8322 9.62149,4.84072 6.8576,2.29791 9.51827,3.53277 11.63363,5.39932 2.68061,2.36534 2.98124,3.12786 2.97458,7.54473 -0.007,4.35997 -0.4355,5.65529 -2.73941,8.27268 -2.82656,3.21115 -6.46172,4.71703 -11.50384,4.76554 -3.08665,0.0297 -3.75161,-0.0818 -7.93328,-1.32978 l -4.56425,-1.36218 -1.33252,0.65928 c -1.01201,0.5007 -1.39248,0.56489 -1.58181,0.26687 -0.13711,-0.21583 -0.25478,-2.19241 -0.26147,-4.39241 l -0.0122,-4 -1.11595,2.07116 c -3.37123,6.25691 -9.75783,9.04257 -18.31938,7.99042 z m 8.34802,-1.09892 c 4.33906,-1.13018 7.13627,-3.42096 9.05931,-7.41913 0.63204,-1.31405 1.35017,-2.46632 1.59585,-2.56059 0.24568,-0.0943 0.4489,-0.48001 0.45159,-0.85718 0.005,-0.73039 0.50601,-1.72823 0.74101,-1.47649 0.0774,0.0829 0.61146,1.28787 1.18682,2.6777 1.87126,4.52022 5.20197,7.99166 8.94727,9.32531 2.32276,0.8271 6.00131,0.97158 7.98254,0.31352 2.14258,-0.71165 4.30183,-2.73705 4.78225,-4.4858 0.55015,-2.00257 0.42775,-5.24932 -0.25453,-6.75166 -0.97921,-2.15616 -2.63425,-3.08011 -10.27026,-5.73353 -2.904,-1.00911 -5.82649,-2.11099 -6.49442,-2.44863 -1.86941,-0.945 -3.57833,-2.6558 -4.58813,-4.59318 -0.87431,-1.67743 -0.92512,-1.71865 -1.08055,-0.8766 l -0.1631,0.8836 -16.1569,0.08 c -8.88629,0.044 -16.34397,0.15017 -16.57261,0.23598 -0.27429,0.10295 -0.0368,0.48874 0.69827,1.13411 1.73963,1.52741 2.40026,3.25202 2.76474,7.21748 0.17656,1.92086 0.47953,4.28447 0.67328,5.25247 0.74348,3.71467 3.01744,7.38896 5.53638,8.94576 2.47484,1.52953 7.63555,2.05522 11.16119,1.1369 z M 336.41003,231.44 c 0.37621,-0.91615 0.21936,-7.78764 -0.21867,-9.58018 -1.02302,-4.18643 -3.81145,-6.29771 -8.31758,-6.29771 -5.33888,0 -8.88143,3.14875 -10.43256,9.27286 -0.58791,2.32114 -1.09407,6.20069 -0.88262,6.76503 0.11538,0.30795 2.39029,0.4 9.88567,0.4 8.97126,0 9.75387,-0.044 9.96576,-0.56 z M 194.72,256.04619 c 0,-0.1506 1.10535,-0.35741 2.45634,-0.45959 1.69971,-0.12855 2.71005,-0.37517 3.28,-0.80064 l 0.82366,-0.61488 0.0918,-14.68554 c 0.0505,-8.07705 0.008,-15.15463 -0.095,-15.72796 -0.10271,-0.57333 -0.50703,-1.25228 -0.89848,-1.50877 -0.62469,-0.40931 -0.93938,-0.4069 -2.57312,0.0197 -1.02376,0.26734 -2.00091,0.43957 -2.17143,0.38273 -0.17052,-0.0568 0.95692,-0.7343 2.50543,-1.50546 1.54851,-0.77117 4.23406,-2.24445 5.96788,-3.27397 1.73383,-1.02951 3.34474,-1.87184 3.57979,-1.87184 0.23506,0 0.65366,0.22629 0.93023,0.50286 0.40901,0.409 0.50286,1.33472 0.50286,4.96 0,2.45143 0.10928,4.45714 0.24286,4.45714 0.13357,0 0.57979,-0.93948 0.9916,-2.08773 2.39414,-6.67563 8.74135,-10.39162 14.71806,-8.61672 4.07041,1.20878 6.48896,5.94854 4.97108,9.7421 -0.87732,2.19263 -3.15958,3.30294 -5.32218,2.58922 -2.90886,-0.96001 -3.92749,-4.05357 -2.33659,-7.09612 1.0236,-1.95758 0.90077,-2.94457 -0.45358,-3.64493 -2.27785,-1.17792 -5.45612,-0.21598 -7.73464,2.34098 -1.83268,2.05663 -4.00269,6.70974 -4.43049,9.50018 -0.20973,1.36803 -0.30821,6.74409 -0.25423,13.8786 l 0.0881,11.64559 0.84765,0.63274 c 0.64585,0.48211 1.541,0.67228 3.76,0.7988 1.60179,0.0913 2.91235,0.29008 2.91235,0.44168 0,0.15158 -5.04,0.27561 -11.2,0.27561 -6.16,0 -11.2,-0.12322 -11.2,-0.27381 z"
         id="path327" /><path
         style="fill:#feb0ec;stroke-width:0.32"
         d="m 152.48,297.405 c -5.00495,-1.08457 -10.06421,-4.60957 -12.72938,-8.86909 -1.73822,-2.77806 -2.25937,-4.27767 -2.70058,-7.77101 -0.32783,-2.59553 -0.30799,-3.50477 0.133,-6.09696 0.61817,-3.6337 2.56204,-7.94432 4.84822,-10.75113 0.81881,-1.00528 1.48874,-1.95879 1.48874,-2.11893 0,-0.16014 -0.71461,-0.74973 -1.58803,-1.3102 -2.21312,-1.42016 -4.06118,-3.3517 -4.54166,-4.74683 -0.52421,-1.52212 -0.53257,-5.28045 -0.0156,-7.00826 0.5032,-1.68171 2.99707,-4.3988 4.65098,-5.06726 l 1.2257,-0.4954 -1.13032,1.13032 c -1.94417,1.94417 -1.86279,4.52156 0.20495,6.49042 2.14872,2.04597 7.85451,5.33485 8.69546,5.01215 0.30951,-0.11877 0.49851,-0.0161 0.49851,0.27077 0,0.52395 29.97372,16.27252 30.53451,16.04322 0.19002,-0.0777 0.67757,-0.67576 1.08345,-1.32904 0.40588,-0.65327 1.16877,-1.69177 1.6953,-2.30777 0.61722,-0.7221 0.4403,-0.33145 -0.49797,1.09955 -0.80041,1.22076 -1.45529,2.46003 -1.45529,2.75395 0,0.62099 4.95293,3.03383 8.43607,4.10966 4.85927,1.50088 9.16549,0.29877 10.76484,-3.00505 1.21806,-2.51617 0.66983,-5.62573 -1.37713,-7.81114 l -1.02378,-1.09302 1.02024,0.70075 c 0.56501,0.38807 1.40127,1.47954 1.8742,2.44616 0.75175,1.53653 0.83928,2.04303 0.73142,4.23228 -0.22387,4.54355 -2.64978,8.0873 -6.92164,10.11105 -2.06803,0.97971 -2.29204,1.0157 -6.30422,1.01295 -4.153,-0.003 -4.16539,-0.005 -7.36,-1.33622 l -3.2,-1.33336 -0.9127,1.01622 -0.9127,1.01622 0.54149,-1.07979 c 0.45154,-0.90041 0.47026,-1.14712 0.1127,-1.48516 -0.23583,-0.22296 -7.95996,-4.32742 -17.16473,-9.12102 l -16.73594,-8.71565 -0.81153,0.76081 c -1.04603,0.98065 -3.41399,4.55313 -4.11011,6.20081 -0.82393,1.95022 -1.00377,5.80086 -0.36127,7.73527 2.41278,7.26418 17.13759,15.02892 26.65187,14.05416 4.60795,-0.4721 7.11159,-2.1228 11.27587,-7.43438 0.47875,-0.61066 0.3713,-0.27636 -0.32301,1.00495 -1.75287,3.23479 -2.85246,4.69615 -5.54351,7.36738 -5.29495,5.25594 -11.7673,7.22999 -18.74643,5.71762 z m 30.10701,-40.10274 c -0.82185,-3.73328 -2.90403,-5.18985 -8.11069,-5.67376 -1.19708,-0.11125 -2.23826,-0.30219 -2.31373,-0.42431 -0.0755,-0.12212 1.27671,-0.37571 3.00485,-0.56353 3.3546,-0.36459 5.37158,-1.13642 6.2623,-2.39638 0.28161,-0.39836 0.75913,-1.51628 1.06114,-2.48428 L 183.04,244 l 0.09,3.93835 c 0.0495,2.16609 0.0495,5.62209 0,7.68 l -0.09,3.74165 z m 55.01299,0.0372 c -2.56316,-0.66997 -4.83634,-1.97024 -5.9136,-3.38259 -2.03409,-2.66683 -2.27723,-6.42373 -0.61356,-9.48044 1.11772,-2.05363 2.23273,-3.00811 5.08716,-4.35479 2.38157,-1.1236 8.91548,-3.12312 9.53296,-2.91729 0.20262,0.0675 -0.52083,0.59676 -1.60767,1.17604 -2.82912,1.5079 -4.39656,2.97195 -5.42579,5.06788 -0.77453,1.57727 -0.89854,2.20965 -0.89258,4.55176 0.0149,5.86434 2.82614,8.67162 8.23006,8.21857 4.76847,-0.39977 7.56072,-3.1382 9.04654,-8.87217 0.76104,-2.93695 0.57509,-8.27551 -0.32277,-9.26643 -1.02652,-1.13291 -2.42432,-1.6914 -4.23327,-1.6914 -0.92812,0 -1.68527,-0.0874 -1.68256,-0.19429 0.003,-0.10685 0.9589,-0.69828 2.12487,-1.31428 3.76818,-1.99078 5.2302,-4.78747 5.2302,-10.00477 0,-4.81218 -1.27869,-8.30515 -3.39297,-9.26848 -1.24204,-0.56591 -0.90853,-0.99073 0.59298,-0.75532 2.01456,0.31584 5.1181,1.87241 6.77092,3.39593 0.80079,0.73814 1.85426,2.15445 2.34105,3.14736 0.74976,1.52928 0.88249,2.19666 0.8682,4.36528 -0.0304,4.61895 -2.01671,7.20456 -7.02018,9.13848 -0.87929,0.33986 -0.90619,0.39273 -0.31999,0.62885 0.35199,0.14179 1.31797,0.43117 2.1466,0.64307 0.82863,0.2119 2.07168,0.86896 2.76233,1.46013 2.09597,1.79407 2.38432,2.92076 2.59041,10.12165 0.21981,7.68015 0.21597,7.67249 3.93899,7.86967 1.27692,0.0676 2.46566,0.26429 2.64166,0.43702 0.2095,0.20561 -1.29076,0.2773 -4.34423,0.2076 -4.47025,-0.10204 -4.71968,-0.14319 -5.99727,-0.9892 -1.90213,-1.25959 -2.92342,-2.97162 -3.32218,-5.5691 -0.50334,-3.27862 -0.59249,-3.33833 -1.35617,-0.90817 -0.38715,1.232 -0.88595,2.57674 -1.10844,2.98831 -2.52141,4.66424 -10.01375,7.20776 -16.3517,5.55112 z m 49.89298,-0.91278 c -0.36691,-0.85066 -3.96782,-9.6723 -8.00203,-19.60364 -4.0342,-9.93134 -7.58602,-18.33921 -7.89293,-18.68416 -0.85337,-0.95912 -2.43337,-1.49885 -4.38775,-1.49885 -0.97365,0 -1.77028,-0.144 -1.77028,-0.32 0,-0.20697 3.78667,-0.32 10.72,-0.32 6.93334,0 10.72,0.11303 10.72,0.32 0,0.17915 -0.88033,0.32022 -2,0.3205 -2.48248,6.1e-4 -4.19931,0.76153 -4.33092,1.9195 -0.0523,0.46016 1.42048,4.47026 3.467,9.44 4.66294,11.32338 5.09329,13.35658 3.83146,18.10164 -1.0069,3.78637 -0.6991,9.72117 0.52534,10.12932 0.18084,0.0603 1.23934,-2.01903 2.35224,-4.62068 1.11289,-2.60166 4.66301,-10.8453 7.88916,-18.31922 3.22615,-7.47391 5.86572,-13.96759 5.86572,-14.4304 0,-1.46337 -1.0354,-2.04481 -3.87061,-2.17356 -1.38896,-0.0631 -2.44579,-0.24348 -2.3485,-0.40089 0.25033,-0.40505 12.61911,-0.37193 12.61911,0.0338 0,0.176 -0.51823,0.32 -1.15164,0.32 -1.48665,0 -3.23241,0.83608 -3.91227,1.87368 -0.29479,0.44991 -4.22922,9.45946 -8.74318,20.02122 -4.51396,10.56175 -8.36596,19.25612 -8.56,19.32079 -0.19404,0.0647 -0.65301,-0.57839 -1.01992,-1.42904 z m 35.98391,0.69553 c -9.93916,-2.16157 -16.1169,-10.00641 -16.1169,-20.46614 0,-3.87975 0.52897,-6.16616 2.22467,-9.61604 3.08507,-6.27648 9.20943,-10.98947 15.37533,-11.83204 l 1.44,-0.19678 -1.89022,0.7991 c -3.59318,1.51903 -5.62577,3.82214 -6.82366,7.73181 -0.91528,2.98732 -1.47602,6.65171 -1.2237,7.99672 l 0.20658,1.10119 h -2.2545 c -1.28967,0 -2.2545,0.13695 -2.2545,0.32 0,0.176 0.12,0.32 0.26667,0.32 0.65146,0 2.63267,2.45741 3.06471,3.80135 0.26145,0.81326 0.6309,3.13465 0.82101,5.15865 0.92418,9.83929 4.29068,13.99223 12.16761,15.01007 l 2.08,0.26877 -2.56,0.0151 c -1.408,0.008 -3.44339,-0.17699 -4.5231,-0.4118 z m 32.5231,0.0152 c -0.968,-0.21837 -2.95543,-0.77962 -4.41652,-1.24721 -3.02023,-0.96656 -4.15418,-1.05209 -5.04232,-0.38034 -1.31916,0.99776 -1.42116,0.72288 -1.42116,-3.82982 0,-2.43884 -0.12913,-4.32 -0.29654,-4.32 -0.1631,0 -0.64758,0.756 -1.07662,1.68 -0.9853,2.12197 -2.41611,3.90273 -4.15135,5.16673 -1.3389,0.97529 -1.33494,0.96667 0.32403,-0.70444 1.08684,-1.09479 2.10316,-2.58194 2.88,-4.21422 0.67632,-1.42107 1.44499,-2.58916 1.76048,-2.67528 0.37971,-0.10366 0.56,-0.47159 0.56,-1.14283 0,-1.53965 0.49303,-1.17431 1.28954,0.95556 1.54072,4.11984 4.7056,7.77094 8.14753,9.39923 0.94605,0.44755 2.84573,1.01715 4.22151,1.26577 l 2.50142,0.45205 -1.76,-0.004 c -0.968,-0.002 -2.552,-0.18274 -3.52,-0.40112 z m 7.77841,-0.46276 c 3.72713,-1.5184 5.17499,-3.7269 5.16248,-7.87461 -0.008,-2.80015 -0.40742,-3.88833 -1.95232,-5.3248 -1.31546,-1.22312 -2.91896,-1.95135 -9.12734,-4.14518 -3.04573,-1.07626 -6.04249,-2.21513 -6.65947,-2.53081 -1.73147,-0.88594 -3.52657,-2.81616 -4.44344,-4.77791 -0.71371,-1.52706 -0.82917,-2.19665 -0.80893,-4.69143 0.0207,-2.54773 0.14537,-3.17031 1.00134,-4.99948 0.53775,-1.14914 1.49011,-2.6565 2.11636,-3.34969 1.13477,-1.25606 3.49336,-2.72189 5.01291,-3.11548 0.64752,-0.16771 0.60238,-0.0971 -0.23679,0.37034 -1.42164,0.79194 -3.2006,2.51647 -3.80846,3.69195 -0.27767,0.53695 -0.57995,1.80447 -0.67173,2.81672 -0.13436,1.48169 -0.0278,2.12778 0.54669,3.31451 1.1921,2.46255 3.35156,3.63234 11.85029,6.4194 5.47768,1.79633 8.49407,3.28612 10.39592,5.1345 2.28269,2.21852 2.56513,2.99477 2.55689,7.02736 -0.007,3.20249 -0.0887,3.68734 -0.91042,5.37518 -1.79292,3.68255 -6.22669,6.89384 -9.89008,7.16321 l -1.67231,0.12296 z m -28.57841,-0.2643 c 0.264,-0.0985 1.02,-0.45009 1.68,-0.78124 0.66,-0.33114 1.2,-0.53008 1.2,-0.44208 0,0.25104 -2.48717,1.4559 -2.94725,1.42774 -0.27241,-0.0167 -0.24954,-0.0862 0.0673,-0.20442 z M 197.44,256 c -0.11242,-0.18189 0.1601,-0.32 0.63139,-0.32 1.22422,0 2.94576,-0.8099 3.35771,-1.57965 0.25663,-0.47952 0.33327,-4.93964 0.26576,-15.46709 -0.1111,-17.32558 -0.0139,-16.74226 -2.77682,-16.66697 -0.93424,0.0255 -1.57699,-0.0684 -1.42833,-0.20862 0.14866,-0.1402 1.54613,-0.92896 3.1055,-1.7528 1.55937,-0.82383 3.57537,-1.96549 4.48,-2.53703 2.32361,-1.46801 2.67912,-1.55351 3.41204,-0.82058 0.57332,0.57332 0.63275,1.07751 0.63275,5.36874 0,2.94036 0.12996,4.86596 0.34276,5.07876 0.24369,0.24369 0.24369,1.05512 0,2.80716 -0.43594,3.13429 -0.45633,22.87771 -0.0248,24.01272 0.3433,0.90296 1.98991,1.76536 3.37064,1.76536 0.47129,0 0.74381,0.13811 0.6314,0.32 -0.1231,0.19918 -3.1437,0.32 -8,0.32 -4.85631,0 -7.8769,-0.12082 -8,-0.32 z m -43.68,-11.47386 c -0.968,-0.32947 -2.52133,-0.90663 -3.45185,-1.28259 -0.93051,-0.37595 -2.04651,-0.68355 -2.48,-0.68355 -0.43348,0 -0.78815,-0.16777 -0.78815,-0.37282 0,-0.20506 -0.86832,-1.27709 -1.9296,-2.3823 -1.07761,-1.12222 -2.31392,-2.82973 -2.8,-3.86718 -0.78927,-1.68454 -0.8704,-2.2012 -0.8704,-5.54282 0,-3.5433 0.042,-3.77113 1.09169,-5.92 2.92593,-5.98987 10.06361,-10.05212 17.69256,-10.06932 4.41546,-0.01 7.81207,1.13582 11.38603,3.84085 0.92548,0.70047 1.81503,1.27359 1.97676,1.27359 0.16174,0 1.38431,-0.78221 2.71682,-1.73825 3.13995,-2.2528 5.44241,-3.12042 8.33614,-3.14125 5.19623,-0.0374 8.70555,3.28867 7.54762,7.15348 -0.46215,1.54255 -2.21713,3.35379 -3.52871,3.64187 -1.90267,0.41789 -2.9012,-0.0996 -5.60581,-2.90554 -2.6078,-2.70545 -3.60783,-3.33031 -5.32982,-3.33031 -1.02634,0 -2.84328,0.79991 -2.84328,1.25175 0,0.15143 0.56059,1.11973 1.24577,2.15178 1.75495,2.64344 2.34631,4.57942 2.38149,7.79647 0.0263,2.40297 -0.0844,2.96243 -0.94992,4.8 -1.9058,4.04633 -5.45601,7.05126 -10.34321,8.75456 -2.43002,0.84691 -3.23243,0.96501 -7.21413,1.06176 -3.73624,0.0908 -4.77219,0.009 -6.24,-0.49018 z m 10.13714,-0.31968 c 5.14108,-1.77655 7.14854,-5.78669 7.1373,-14.25765 -0.0113,-8.53158 -1.96065,-12.68528 -6.76642,-14.41809 -2.37095,-0.85489 -6.21111,-0.80038 -8.63509,0.12257 -4.9528,1.88581 -7.09306,6.24219 -7.08775,14.42671 0.005,7.59772 1.81524,11.61529 6.08487,13.50395 2.88568,1.27648 6.64402,1.52894 9.26709,0.62251 z M 336.36575,232.08 c 0.15084,-0.308 0.27158,-2.576 0.26833,-5.04 -0.005,-3.41374 -0.13839,-4.86322 -0.56251,-6.09014 -1.08853,-3.14889 -3.47677,-5.11587 -6.67083,-5.49416 -0.87752,-0.10393 -1.47967,-0.29383 -1.33812,-0.42201 0.40611,-0.36774 4.57924,0.20888 6.56639,0.9073 4.52077,1.58893 8.31757,5.37926 9.90087,9.88404 0.67328,1.91561 1.27507,5.68547 1.01554,6.36179 -0.13894,0.36207 -1.10671,0.45318 -4.8139,0.45318 -4.31019,0 -4.62051,-0.0398 -4.36577,-0.56 z m -98.67022,-3.90705 c -0.56345,-0.34355 -1.24745,-1.05587 -1.52,-1.58291 -0.70881,-1.37069 -0.6309,-3.95019 0.16651,-5.51326 0.93827,-1.83915 3.23727,-4.0248 5.1897,-4.93381 2.15586,-1.00374 2.88499,-0.99869 1.5171,0.0105 -1.42049,1.04801 -2.24527,2.34543 -2.24184,3.52653 0.003,1.16927 0.14973,1.3911 1.67109,2.53345 3.16234,2.3745 1.64728,6.58881 -2.36747,6.58535 -0.81415,-7e-4 -1.81531,-0.26014 -2.41509,-0.62585 z m -14.04115,-1.25637 C 222.53167,226.23195 221.6,224.50987 221.6,223.1193 c 0,-0.51919 0.36747,-1.6351 0.8166,-2.47981 0.44914,-0.8447 0.77314,-1.89591 0.72,-2.33601 -0.1525,-1.26317 -1.59181,-2.12062 -3.55964,-2.12062 -3.03865,0 -5.51915,2.0223 -8.01828,6.53714 -1.34638,2.43233 -1.54253,2.05649 -0.3026,-0.57982 1.02977,-2.18948 3.82404,-5.02679 6.03814,-6.13114 1.11952,-0.55839 2.2687,-0.82746 3.90845,-0.91511 3.03638,-0.1623 4.15709,0.0736 5.93103,1.24865 3.75501,2.48722 4.27616,9.03777 0.85669,10.76804 -1.15797,0.58594 -3.20732,0.49423 -4.33601,-0.19404 z m 145.10056,-4.46729 c -2.27382,-4.73013 -4.57614,-6.66868 -8.32366,-7.0085 -1.02027,-0.0925 -1.78475,-0.28193 -1.69884,-0.42093 0.26156,-0.42321 3.67838,0.0582 6.37812,0.89859 1.87752,0.58446 2.95416,0.74618 4.08,0.61284 l 1.52943,-0.18114 v 4.44604 c 0,2.44532 -0.108,4.51272 -0.24,4.59421 -0.132,0.0815 -0.90827,-1.242 -1.72505,-2.94111 z m -120.98649,-7.96401 c 0.75266,-0.0676 1.90466,-0.0666 2.56,0.002 0.65535,0.0688 0.0395,0.12407 -1.36845,0.12291 -1.408,-10e-4 -1.9442,-0.0574 -1.19155,-0.12502 z"
         id="path325" /><path
         style="fill:#fe8fe5;stroke-width:0.32"
         d="m 154.4,297.71817 c -9.98985,-1.95981 -16.51882,-8.71862 -17.42477,-18.03817 -0.24701,-2.5411 0.19219,-5.83981 1.02775,-7.71916 l 0.62282,-1.40084 -0.14463,2.24 c -0.11331,1.75499 4.9e-4,2.62108 0.52559,4 1.94956,5.11955 9.14004,10.47167 17.47324,13.00593 2.52904,0.76912 3.42594,0.87818 7.36,0.89496 4.25683,0.0181 4.57564,-0.0255 6.4,-0.87713 1.056,-0.49293 2.52898,-1.49196 3.27329,-2.22005 0.74431,-0.72809 1.43177,-1.24532 1.52769,-1.1494 0.30448,0.30448 -2.53554,3.8765 -4.58908,5.77189 -2.21559,2.04496 -5.10288,3.77423 -7.91991,4.74343 -1.85546,0.63837 -6.50973,1.06679 -8.13199,0.74854 z m 32.66729,-14.88053 c -0.95298,-0.15816 -2.98684,-0.78932 -4.51967,-1.4026 -1.53283,-0.61327 -2.90178,-1.11504 -3.0421,-1.11504 -0.14032,0 -0.48247,-0.20302 -0.76032,-0.45115 C 178.03707,279.2365 145.13163,262.08 144.62692,262.08 c -0.2269,0 -0.74878,-0.28533 -1.15974,-0.63408 -0.41095,-0.34874 -1.64307,-1.28141 -2.73805,-2.07261 -2.67134,-1.93023 -3.70532,-3.89344 -3.71484,-7.05331 -0.01,-3.20524 1.50194,-6.37456 3.64374,-7.63975 l 0.99257,-0.58633 -0.5053,0.97715 c -0.6358,1.22951 -0.64981,3.32125 -0.0303,4.51933 0.26127,0.50524 1.08927,1.41437 1.84,2.0203 2.02098,1.63115 6.77088,4.3893 7.55899,4.3893 0.37728,0 0.68597,0.13288 0.68597,0.2953 0,0.37223 29.66114,15.82864 30.63896,15.96595 0.39657,0.0557 0.72104,0.23933 0.72104,0.40808 0,0.75547 8.80677,4.26608 11.56592,4.61048 3.4233,0.4273 6.81273,-1.19757 8.27697,-3.96792 0.59554,-1.12677 0.60913,-1.13296 0.62296,-0.2839 0.0279,1.71377 -1.27015,4.38797 -2.97445,6.12775 -3.28834,3.3568 -7.59097,4.57689 -12.98411,3.6819 z m 50.28635,-25.7143 c -3.31423,-0.93054 -5.2319,-2.37575 -6.35625,-4.79026 -1.90476,-4.09045 -0.34876,-8.84994 3.68482,-11.27113 1.74124,-1.0452 8.67858,-3.46169 9.32212,-3.24717 0.19768,0.0659 -0.58566,0.72233 -1.74077,1.45874 -3.29242,2.09901 -4.65832,4.6644 -4.66178,8.75562 -0.005,5.76751 2.50742,8.4631 7.83822,8.41008 2.55209,-0.0254 2.55654,-0.024 1.44,0.4551 -1.6153,0.69309 -7.37992,0.83167 -9.52636,0.22902 z m 50.69063,-0.003 c -0.1122,-0.29239 -6.4e-4,-0.48 0.28577,-0.48 0.25847,0 0.46995,0.216 0.46995,0.48 0,0.264 -0.12859,0.48 -0.28576,0.48 -0.15717,0 -0.36865,-0.216 -0.46996,-0.48 z m 32.60545,-1.01691 c -6.34597,-2.33875 -10.81119,-7.27014 -12.55259,-13.86309 -0.87908,-3.32818 -0.73252,-8.77189 0.32306,-12 1.92247,-5.87914 6.14016,-10.73232 11.5798,-13.32454 2.83456,-1.35078 3.37829,-1.17018 1.37199,0.4557 -2.86292,2.32007 -4.93927,7.59513 -5.14211,13.06373 l -0.0699,1.88383 -1.92,0.006 c -2.72928,0.008 -3.12648,0.3711 -1.51692,1.38718 2.0166,1.27302 2.94113,3.48629 3.32041,7.94888 0.1692,1.99082 0.52693,4.47216 0.79494,5.51409 1.03366,4.01845 3.30076,7.13353 6.52157,8.96088 1.40443,0.79682 1.41629,0.81666 0.48,0.80337 -0.528,-0.007 -1.96362,-0.3835 -3.19027,-0.83557 z m 43.99027,0.73385 c 0,-0.0914 0.63365,-0.60215 1.4081,-1.13499 2.03201,-1.39806 3.07244,-3.6228 3.07011,-6.56478 -0.003,-3.11613 -0.42682,-4.39172 -1.90544,-5.72756 -1.69026,-1.52705 -2.13035,-1.72927 -9.13277,-4.19638 -3.3664,-1.18606 -6.80751,-2.61774 -7.71003,-3.20777 -5.16411,-3.37608 -5.78,-11.74912 -1.23431,-16.78065 1.9362,-2.14315 2.50598,-2.22436 1.27607,-0.18187 -1.67584,2.78299 -1.75176,5.44051 -0.22598,7.90928 1.03014,1.66679 4.02103,3.19246 10.53943,5.3762 6.78527,2.27315 8.23852,2.92757 10.53862,4.7457 6.84824,5.41321 3.42026,16.85692 -5.9038,19.70879 -0.396,0.12112 -0.72,0.14543 -0.72,0.054 z M 182.2915,255.54192 c -0.21839,-0.60394 -0.89329,-1.53376 -1.49978,-2.06626 -1.08361,-0.95143 -3.72861,-1.95566 -5.15092,-1.95566 -1.50683,0 -0.98976,-0.56259 0.69956,-0.76113 3.15893,-0.37127 5.37672,-1.82509 6.03922,-3.95887 0.56251,-1.81175 0.82042,-0.37827 0.82042,4.56 0,2.904 -0.11507,5.28 -0.25572,5.28 -0.14064,0 -0.43439,-0.49414 -0.65278,-1.09808 z m 169.90638,0.30477 c -3.36979,-1.09087 -4.51545,-1.22498 -5.59119,-0.65446 -0.50232,0.2664 -1.04232,0.40464 -1.2,0.30719 -0.35171,-0.21737 -0.3757,-9.42387 -0.026,-9.97444 0.16023,-0.25225 0.68606,0.57118 1.45496,2.2784 1.43925,3.19566 3.63802,5.7891 6.30238,7.43364 2.72937,1.68465 2.61321,1.75998 -0.94016,0.60967 z m -89.95789,0.17371 c -2.26563,-0.45715 -3.88029,-1.70287 -4.95119,-3.81986 -0.52163,-1.03118 -0.81798,-3.11798 -1.42649,-10.04493 -0.38319,-4.36205 -1.28909,-5.54086 -4.57885,-5.95828 l -1.68346,-0.2136 0.96,-0.6018 c 0.528,-0.331 1.49719,-0.93952 2.15376,-1.35228 2.51667,-1.58214 4.0299,-5.9755 3.66195,-10.63177 -0.27035,-3.42124 -0.99991,-5.60144 -2.38889,-7.13887 l -1.17705,-1.30286 1.11511,0.23107 c 3.60849,0.74775 7.03875,3.42953 8.47214,6.62353 0.7765,1.7303 0.86282,2.24679 0.73446,4.39498 -0.27042,4.52555 -2.4389,6.99786 -7.71177,8.79227 -0.91175,0.31028 -0.37139,0.73422 1.21257,0.95132 1.77702,0.24357 3.56291,1.13207 4.71528,2.34591 1.54983,1.63248 1.85243,3.14258 1.85243,9.24417 0,3.04641 0.14041,5.90824 0.31203,6.35962 0.17161,0.45137 0.75544,1.09034 1.29739,1.41992 0.79541,0.48372 0.88443,0.63797 0.4618,0.80015 -0.62099,0.2383 -1.50356,0.20956 -3.03122,-0.0987 z m -62.0712,-0.54722 c 1.6457,-1.09578 1.59215,-0.53283 1.57678,-16.57434 -0.016,-16.64116 -0.0183,-16.662 -1.9195,-17.30547 l -1.10607,-0.37435 1.44,-0.72995 c 0.792,-0.40147 2.78627,-1.53001 4.43172,-2.50786 2.34985,-1.39647 3.10506,-1.70662 3.52,-1.44559 0.68723,0.43233 0.91696,6.29205 0.95127,24.26438 0.0267,14.00509 -0.0232,13.56026 1.64821,14.67318 0.74851,0.49839 0.46411,0.52682 -5.2712,0.52682 -5.73531,0 -6.01972,-0.0284 -5.27121,-0.52682 z M 286.65178,253.68 c -0.16863,-0.22 -3.30461,-7.816 -6.96885,-16.88 -3.66425,-9.064 -6.92834,-17.0151 -7.25355,-17.66911 -0.3252,-0.65401 -1.12828,-1.55401 -1.78461,-2 l -1.19334,-0.81089 6.55428,0.001 6.55428,0.001 -1.01142,0.61673 c -1.89531,1.15567 -1.96721,0.84332 2.91469,12.66088 1.52685,3.696 2.9811,7.584 3.23167,8.64 0.63775,2.68759 0.57528,5.40539 -0.19918,8.66627 -0.43546,1.83352 -0.62833,3.5508 -0.56,4.98599 0.0573,1.20405 0.0859,2.18886 0.0634,2.18846 -0.0224,-3.2e-4 -0.17877,-0.18072 -0.34739,-0.40072 z M 152.48,243.81263 c -1.496,-0.53834 -3.19959,-1.14013 -3.78575,-1.33731 -1.43042,-0.48118 -4.9822,-4.15668 -6.00393,-6.21308 -1.15401,-2.32264 -1.62384,-5.64151 -1.1553,-8.16099 0.95758,-5.14909 4.99151,-9.67717 10.68048,-11.9888 2.64121,-1.07322 3.33867,-0.84687 1.29794,0.42123 -3.39457,2.10938 -4.84533,5.50271 -5.10741,11.94632 -0.35884,8.82219 1.54917,13.31307 6.63397,15.61435 2.2571,1.02153 0.53493,0.83201 -2.56,-0.28172 z m 13.93147,-0.52231 c 0.71031,-0.52528 1.67113,-1.40624 2.13514,-1.9577 1.97727,-2.34985 3.01985,-7.52139 2.71633,-13.47389 -0.31515,-6.18055 -1.7983,-9.59524 -5.04401,-11.61288 -0.86841,-0.53983 -1.57893,-1.03473 -1.57893,-1.09978 0,-0.065 0.396,-0.0229 0.88,0.0936 1.38069,0.33243 3.8935,1.66455 6.12626,3.24774 1.37201,0.97285 2.17489,1.35566 2.43663,1.16176 6.39865,-4.74013 9.3043,-5.69436 13.52385,-4.44129 2.84162,0.84387 4.55326,2.79156 4.55326,5.18121 0,3.31912 -3.52014,5.89982 -6.18104,4.53146 -0.38443,-0.19769 -1.77896,-1.48428 -3.09896,-2.85907 -2.73068,-2.84404 -4.12608,-3.47379 -6.36272,-2.87153 -2.07584,0.55897 -2.20295,1.01368 -0.85221,3.04865 2.18277,3.28849 2.55646,4.45368 2.56617,8.00139 0.008,2.89685 -0.08,3.38189 -0.92788,5.12 -1.84786,3.78789 -7.19071,7.98094 -11.06336,8.68248 l -1.12,0.20289 z M 337.0042,229.36 c 0.10289,-1.628 0.0273,-4.08477 -0.16806,-5.45949 -0.58428,-4.11229 -1.64363,-5.97821 -4.52371,-7.96798 l -0.79244,-0.54747 1.12,0.17889 c 0.616,0.0984 2.17588,0.6673 3.46639,1.26423 2.86978,1.32743 5.82576,4.17463 7.35618,7.08548 1.04784,1.99296 1.9614,5.40577 1.97188,7.36634 l 0.006,1.04 h -4.31143 -4.31142 z m -98.74146,-1.1205 c -4.05579,-2.0681 -2.98096,-7.87583 2.0777,-11.22655 1.98142,-1.31243 2.33966,-1.2806 1.27638,0.11343 -0.47252,0.61952 -0.94356,1.64666 -1.04675,2.28254 -0.17613,1.08535 -0.0768,1.25842 1.62115,2.82619 1.47313,1.36013 1.80878,1.85992 1.80878,2.69335 0,1.50694 -0.85194,2.89905 -2.09098,3.41675 -1.43282,0.59867 -2.31507,0.57309 -3.64628,-0.10571 z m -14.01644,-1.17867 c -1.31508,-0.59111 -2.32357,-2.23562 -2.32511,-3.79147 -6.6e-4,-0.66585 0.35881,-1.92106 0.79881,-2.78936 0.44,-0.8683 0.8,-1.78009 0.8,-2.02621 0,-0.94379 -1.31803,-2.13231 -2.59026,-2.33575 -1.66497,-0.26623 -1.86259,-0.6741 -0.45461,-0.93824 3.4029,-0.63839 7.38173,1.10523 8.78926,3.85166 1.0132,1.97702 1.1327,4.99273 0.25115,6.33816 -1.17907,1.79948 -3.42478,2.52026 -5.26924,1.69121 z m 144.77389,-4.65758 c -1.29495,-2.7728 -2.55971,-4.40507 -4.50821,-5.81816 -1.48714,-1.07851 -1.24107,-1.12533 1.27791,-0.24316 1.29782,0.4545 2.31627,0.60683 3.2501,0.48612 l 1.36,-0.17581 v 4.15388 c 0,2.28463 -0.0418,4.15388 -0.0929,4.15388 -0.0511,0 -0.63019,-1.15054 -1.28692,-2.55675 z m -64.2202,-3.64355 c 0,-0.32061 -0.44723,-1.0007 -0.99384,-1.51131 l -0.99384,-0.92839 2.67384,0.0168 c 2.61805,0.0164 2.65715,0.0281 1.87384,0.56 -0.44,0.29877 -1.196,0.97131 -1.68,1.49454 -0.71646,0.77452 -0.88,0.84298 -0.88,0.36838 z m -145.83034,-4.27531 c 0.84131,-0.0661 2.13731,-0.0653 2.88,0.002 0.74269,0.0671 0.0543,0.12122 -1.52965,0.12024 -1.584,-9.7e-4 -2.19166,-0.0559 -1.35035,-0.12202 z m 89.11608,0.004 c 0.57515,-0.0712 1.43915,-0.0697 1.92,0.003 0.48084,0.073 0.0103,0.13129 -1.04573,0.12949 -1.056,-0.002 -1.44943,-0.0615 -0.87427,-0.13275 z"
         id="path323" /><path
         style="fill:#fe7ae0;stroke-width:0.32"
         d="m 155.04,297.69908 c -0.616,-0.0653 -1.408,-0.24337 -1.76,-0.39578 -0.352,-0.15242 -1.64579,-0.59011 -2.87509,-0.97265 -5.52906,-1.72059 -10.41424,-6.43335 -12.07718,-11.65092 -0.34354,-1.07785 -0.75581,-2.20978 -0.91617,-2.51539 -0.39848,-0.75942 -0.37373,-7.51579 0.0284,-7.76434 0.176,-0.10878 0.33411,-0.51328 0.35135,-0.89889 0.0172,-0.38561 0.20328,0.16289 0.41341,1.21889 1.01408,5.09617 5.3938,9.60088 12.76477,13.12906 4.91594,2.35305 8.02608,3.1266 12.71047,3.1613 4.491,0.0333 6.32556,-0.41058 8.64666,-2.09198 0.73308,-0.53103 1.40295,-0.89543 1.48862,-0.80977 0.0857,0.0857 -0.8848,1.25116 -2.15656,2.58999 -2.44226,2.57107 -5.78231,4.85198 -8.45872,5.77644 -0.88,0.30396 -1.888,0.67045 -2.24,0.81442 -0.78548,0.32126 -4.39603,0.57109 -5.92,0.40962 z m 30.9787,-15.29418 c -1.00171,-0.25386 -2.78563,-0.89882 -3.96426,-1.43324 C 180.87581,280.43725 179.76273,280 179.58094,280 c -0.1818,0 -0.55789,-0.1948 -0.83574,-0.43288 -0.50333,-0.43128 -32.48755,-17.17121 -33.9673,-17.77784 -1.75752,-0.7205 -5.84175,-4.05495 -6.50306,-5.30923 -0.37116,-0.70398 -0.78284,-1.32798 -0.91484,-1.38667 -0.33917,-0.15081 -0.30027,-5.49338 0.04,-5.49338 0.154,0 0.36129,-0.396 0.46065,-0.88 0.18107,-0.88211 2.00295,-3.6 2.41318,-3.6 0.12015,0 0.2157,0.91074 0.21232,2.02386 -0.005,1.74281 0.12207,2.19212 0.91713,3.23539 0.98906,1.29786 4.90257,3.99437 8.03672,5.53752 1.056,0.51994 8.46701,4.36913 16.46892,8.55376 22.48594,11.7591 25.21173,12.96947 29.20766,12.96947 2.72768,0 4.22922,-0.54561 6.07935,-2.20904 1.39191,-1.25145 1.57821,-1.34107 1.3712,-0.65959 -0.93916,3.09168 -3.20823,5.57866 -6.49179,7.11522 -1.78295,0.83434 -2.52748,0.98982 -5.15948,1.07746 -1.95389,0.0651 -3.74021,-0.0659 -4.89716,-0.35915 z m 53.24963,-25.14074 c -2.26769,-0.30203 -4.85311,-1.38298 -6.3634,-2.66048 -2.41472,-2.04254 -3.1752,-6.10959 -1.74339,-9.32368 0.95816,-2.15085 2.03757,-3.21812 4.53224,-4.48122 2.10879,-1.06773 6.61807,-2.59359 6.88269,-2.32898 0.0784,0.0784 -0.48811,0.59531 -1.2588,1.14878 -2.80455,2.01408 -4.24471,5.40973 -3.96318,9.34452 0.31374,4.38483 2.60135,7.19609 6.18431,7.59994 1.72799,0.19477 1.88759,0.71526 0.2212,0.72133 -0.66,0.003 -1.488,0.0591 -1.84,0.12605 -0.352,0.0669 -1.54526,9.6e-4 -2.65167,-0.14626 z m 81.51316,-1.35609 c -7.98466,-2.72208 -13.07647,-10.22487 -13.09594,-19.29688 -0.0167,-7.79025 4.71595,-15.57932 11.56758,-19.03801 2.35963,-1.19114 2.81438,-1.18363 1.43925,0.0237 -2.31932,2.03638 -4.15154,6.83784 -4.63255,12.13988 l -0.21984,2.42319 -2.32,0.094 c -2.72947,0.11061 -2.93074,0.48345 -0.91927,1.70292 2.04235,1.23819 2.68629,2.83056 3.23842,8.00813 0.80567,7.55499 2.3162,10.82027 6.36887,13.76737 1.4954,1.08746 1.31375,1.10982 -1.42652,0.17563 z m -120.05458,-0.0878 c -0.0989,-0.0989 0.16514,-0.55189 0.58667,-1.00673 l 0.76642,-0.82698 v -14.82679 c 0,-12.81948 -0.069,-14.99933 -0.50992,-16.10121 -0.28045,-0.70092 -0.78445,-1.36154 -1.12,-1.46804 -0.97959,-0.31091 -0.71885,-0.7246 1.00834,-1.59984 0.89014,-0.45106 2.56119,-1.39715 3.71345,-2.10241 3.18338,-1.94845 3.11337,-2.04281 3.35033,4.5155 0.11121,3.07794 0.20987,11.31226 0.21924,18.2985 0.0173,12.91032 0.0901,13.76356 1.232,14.43742 1.04634,0.61747 -0.22363,0.86033 -4.49899,0.86033 -2.51228,0 -4.64867,-0.0809 -4.74754,-0.17975 z m 60.40261,-0.33045 c -3.13484,-1.14761 -4.15493,-3.1508 -4.62885,-9.0898 -0.67304,-8.43433 -0.97255,-9.16587 -4.18095,-10.2118 l -1.68237,-0.54845 1.60578,-1.03043 c 3.03364,-1.94668 4.34911,-4.9201 4.33976,-9.80932 -0.007,-3.61674 -0.67139,-6.44792 -1.89137,-8.05865 -0.97785,-1.29106 -0.96738,-1.39285 0.11142,-1.08345 3.0615,0.87803 6.23353,3.48912 7.413,6.1021 0.75634,1.67558 0.88738,5.08991 0.2749,7.16287 -0.50812,1.71975 -3.14087,4.36522 -5.05085,5.07523 -3.7403,1.39042 -3.43084,1.19769 -2.73883,1.7058 0.34164,0.25086 1.00753,0.4561 1.47976,0.4561 1.33934,0 3.55763,0.89821 4.57489,1.85243 1.79489,1.68366 2.10741,2.91071 2.13623,8.38757 0.0316,6.00263 0.3032,7.92313 1.22622,8.67055 0.37495,0.30362 0.68173,0.63695 0.68173,0.74074 0,0.35448 -2.39763,0.14448 -3.67047,-0.32149 z m 90.07047,-0.17025 c -1.73881,-0.62605 -3.98337,-0.68738 -5.2,-0.14207 -0.51923,0.23272 -0.56,-0.0893 -0.56,-4.42324 0,-2.57084 0.0619,-4.67424 0.13767,-4.67424 0.0757,0 0.66927,1.10524 1.319,2.45608 1.14867,2.38818 3.88014,5.58414 5.90333,6.90719 1.05551,0.69025 0.55275,0.65137 -1.6,-0.12372 z m 16.10922,-0.41011 c 2.56568,-2.56567 2.90447,-8.38027 0.64475,-11.06578 -1.29369,-1.53747 -3.27478,-2.51611 -9.81033,-4.84621 -7.01661,-2.5016 -8.62546,-3.38388 -10.05929,-5.51643 -1.40144,-2.08436 -1.77878,-3.69947 -1.61698,-6.92102 0.15335,-3.05339 1.17355,-5.62966 2.87476,-7.25952 l 0.93695,-0.89766 -0.65251,1.43859 c -0.78042,1.72059 -0.87516,4.63992 -0.2028,6.24911 1.0129,2.42421 3.75207,3.97932 11.53623,6.54948 2.816,0.92978 6.10946,2.18475 7.3188,2.78882 2.63721,1.31729 5.07907,3.65346 5.63531,5.39139 0.22176,0.69289 0.52981,1.39659 0.68455,1.56379 0.37602,0.4063 0.36004,3.56033 -0.0216,4.26034 -0.16661,0.30561 -0.53019,1.27566 -0.80795,2.15566 -0.72361,2.29256 -2.46109,4.48071 -4.71413,5.93693 -2.40725,1.55587 -3.2083,1.63504 -1.74578,0.17251 z m -185.10612,-0.14612 c -0.77069,-1.34934 -2.55182,-2.56545 -4.40059,-3.00461 -1.788,-0.42473 -2.17307,-0.87871 -0.74533,-0.87871 1.47544,0 4.1152,-1.51113 4.93068,-2.82257 L 182.72,246.88 l 0.0943,2.334 c 0.0519,1.2837 0.0519,3.26107 0,4.39416 l -0.0943,2.06017 z M 286.18567,252.16 c -0.11096,-0.264 -3.24027,-7.968 -6.95402,-17.12 -5.29609,-13.05143 -6.95368,-16.82384 -7.68618,-17.49245 -0.51365,-0.46885 -0.84951,-0.93685 -0.74636,-1.04 0.30445,-0.30445 10.32088,-0.21393 10.32088,0.0933 0,0.15445 -0.216,0.46008 -0.48,0.67918 -0.264,0.2191 -0.48,0.8574 -0.48,1.41843 0,0.56411 1.55166,4.80191 3.47136,9.48082 1.90925,4.65341 3.65099,9.21417 3.87054,10.13501 0.55187,2.31468 0.50976,5.63466 -0.10093,7.95676 -0.28221,1.07306 -0.62571,2.94506 -0.76333,4.16 -0.13762,1.21494 -0.34101,1.99298 -0.45196,1.72898 z M 151.36,243.2 c -1.232,-0.50958 -2.45904,-0.93405 -2.72676,-0.94326 -1.00467,-0.0346 -4.83921,-4.20402 -5.87318,-6.38617 -0.92258,-1.94705 -1.00006,-2.37089 -1.00006,-5.47057 0,-3.12535 0.0725,-3.51298 1.03752,-5.55062 1.70778,-3.60583 6.33156,-7.62254 10.00248,-8.68924 0.65999,-0.19178 0.56433,-0.0278 -0.54656,0.93713 -2.56183,2.22515 -4.21585,7.12199 -4.24228,12.55957 -0.0338,6.96262 1.66959,11.32174 5.44206,13.92637 1.15256,0.79577 0.44318,0.6659 -2.09322,-0.38321 z m 16.54113,-0.88 c 2.6212,-2.73276 3.58631,-6.12189 3.57665,-12.56 -0.01,-6.57423 -1.18381,-10.46198 -3.87176,-12.82203 -0.58756,-0.51588 -0.88328,-0.9376 -0.65716,-0.93715 0.50992,0.001 3.8483,1.9957 5.41719,3.23678 0.64132,0.50732 1.29149,0.9224 1.44481,0.9224 0.51613,0 3.58667,5.26552 3.96946,6.80703 0.21126,0.85074 0.31796,2.69313 0.24093,4.16 -0.11647,2.21793 -0.30715,2.94981 -1.20967,4.64297 -1.33225,2.49935 -4.37119,5.40008 -7.07051,6.74894 -2.72038,1.35939 -3.27694,1.29921 -1.83994,-0.19894 z m 169.39076,-10.38979 c -0.0747,-0.22562 -0.19537,-2.57021 -0.26812,-5.21021 -0.15591,-5.65811 -0.59536,-7.21465 -2.63903,-9.34755 -1.28249,-1.33847 -1.3147,-1.41492 -0.51629,-1.22517 3.48252,0.82763 7.86882,4.57246 9.57266,8.17272 1.06315,2.24646 1.80002,5.36747 1.62684,6.8905 l -0.10796,0.9495 -3.76612,0.0902 c -2.8431,0.0681 -3.79942,-0.0103 -3.90198,-0.32 z M 238.4,228.17471 c -1.20844,-0.49984 -2.14879,-1.84748 -2.31441,-3.31684 -0.19448,-1.72548 0.27557,-3.25693 1.53205,-4.99144 0.85972,-1.18682 3.45798,-3.37748 3.70861,-3.12684 0.0572,0.0572 -0.18176,0.66469 -0.53109,1.3499 -0.34934,0.68521 -0.63516,1.52196 -0.63516,1.85945 0,0.33749 0.792,1.37461 1.76,2.3047 1.50336,1.44449 1.76,1.86149 1.76,2.85976 0,0.64277 -0.14827,1.44572 -0.32949,1.78432 -0.69667,1.30174 -3.27978,1.96805 -4.95051,1.27699 z m -14.20916,-1.37943 c -2.17654,-1.11857 -2.63431,-3.57128 -1.1968,-6.41246 0.81582,-1.61244 0.86059,-1.86601 0.47348,-2.68182 -0.23514,-0.49555 -1.00352,-1.189 -1.70752,-1.541 l -1.28,-0.64 1.11152,-0.10561 c 3.1126,-0.29574 6.19886,1.17297 7.39606,3.51968 0.39045,0.76535 0.76285,2.21637 0.84604,3.29652 0.12715,1.65106 0.0388,2.09031 -0.61213,3.04475 -1.24024,1.81843 -3.26152,2.42913 -5.03065,1.51994 z m -37.44406,-1.74809 c -0.43071,-0.0811 -1.98993,-1.39651 -3.52,-2.96952 -2.95791,-3.04092 -3.82558,-3.45915 -6.44705,-3.10754 -0.69285,0.0929 -1.25945,0.0747 -1.25911,-0.0406 9.6e-4,-0.34471 2.9229,-2.21513 4.63938,-2.96985 2.22624,-0.97886 5.77911,-1.18267 7.71676,-0.44267 3.99699,1.52647 5.28708,5.02686 2.94842,7.99997 -0.63238,0.80395 -2.44698,1.82527 -3.0549,1.71942 -0.13766,-0.024 -0.59823,-0.10912 -1.0235,-0.18923 z m 182.11391,-3.46943 c -0.57016,-1.15623 -1.70077,-2.81223 -2.51247,-3.68 -0.8117,-0.86777 -1.40221,-1.57776 -1.31225,-1.57776 0.09,0 0.79366,0.22245 1.56379,0.49433 0.88155,0.31122 1.84474,0.41934 2.60023,0.29188 l 1.2,-0.20246 v 3.38812 c 0,1.86347 -0.11309,3.38813 -0.25132,3.38813 -0.13822,0 -0.71781,-0.94601 -1.28798,-2.10224 z m -64.33563,-3.98525 c -0.37679,-0.50963 -0.68507,-1.00443 -0.68507,-1.09955 0,-0.0951 0.72,-0.17296 1.6,-0.17296 0.88,0 1.6,0.0831 1.6,0.18462 0,0.10153 -0.41172,0.59633 -0.91493,1.09955 l -0.91494,0.91494 z m -145.4122,-3.10346 c 0.56808,-0.0707 1.57608,-0.0719 2.24,-0.003 0.66393,0.0693 0.19914,0.12712 -1.03286,0.12854 -1.232,0.001 -1.77521,-0.0553 -1.20714,-0.12595 z m 89.30714,0.0123 c 0.23099,-0.0924 0.507,-0.0811 0.61333,0.0253 0.10633,0.10633 -0.0827,0.18196 -0.42,0.16807 -0.37278,-0.0154 -0.44861,-0.0912 -0.19333,-0.19334 z"
         id="path321" /><path
         style="fill:#fe69dd;stroke-width:0.32"
         d="m 154.72,297.61368 c -0.93502,-0.15425 -1.15946,-0.26356 -0.64,-0.31171 0.44524,-0.0413 -0.19333,-0.28496 -1.44,-0.54953 -6.48488,-1.37623 -12.41097,-6.58608 -14.24472,-12.52307 -0.34941,-1.13123 -0.64963,-2.50962 -0.66718,-3.06308 -0.0307,-0.96713 -0.0419,-0.97516 -0.2881,-0.20629 -0.1598,0.49896 -0.2562,-0.58475 -0.2562,-2.88 0,-2.29525 0.0964,-3.37897 0.2562,-2.88 l 0.2562,0.8 0.0535,-0.8 c 0.0391,-0.58533 0.15932,-0.40752 0.44786,0.66261 1.97698,7.33225 13.61232,14.7135 24.51925,15.55459 2.97877,0.2297 5.9,-0.26207 8.10948,-1.36519 0.85046,-0.42461 1.63705,-0.77201 1.74797,-0.77201 0.55268,0 -3.26213,3.46933 -5.28609,4.80737 -2.30934,1.52671 -5.5658,2.85264 -7.11031,2.89512 -0.74391,0.0205 -0.75999,0.0474 -0.17786,0.29751 0.52488,0.22555 0.43855,0.27969 -0.48,0.30103 -0.616,0.0143 -1.624,0.081 -2.24,0.14811 -0.616,0.0672 -1.768,0.0152 -2.56,-0.11546 z m 31.2,-15.50711 c -2.06609,-0.51523 -6.23719,-2.27153 -8.48,-3.57063 -2.17756,-1.26131 -32.54975,-17.09594 -32.79148,-17.09594 -0.1626,0 -2.30931,-1.45738 -4.43979,-3.01413 -1.10602,-0.80817 -2.44043,-2.99724 -2.47122,-4.05399 -0.0209,-0.71725 -0.042,-0.72658 -0.29751,-0.13188 -0.18377,0.42766 -0.27502,-0.20936 -0.27502,-1.92 0,-1.71064 0.0912,-2.34766 0.27502,-1.92 0.25261,0.58785 0.27742,0.57481 0.30454,-0.16 0.0392,-1.06352 1.04966,-3.22194 1.83475,-3.91936 0.61181,-0.54348 0.62578,-0.53281 0.49241,0.37588 -0.19063,1.2989 0.45859,3.07625 1.59749,4.37339 1.04034,1.18488 5.14404,3.83302 8.73081,5.63403 1.232,0.61862 7.208,3.71663 13.28,6.88445 6.072,3.16783 13.272,6.91888 16,8.33567 12.09291,6.28047 16.47639,7.17536 20.82884,4.25223 0.76798,-0.51578 1.46127,-0.87285 1.54064,-0.79347 0.0794,0.0794 -0.42129,0.96595 -1.11258,1.97018 -1.45643,2.11572 -4.05317,4.0548 -6.33918,4.73367 -1.91514,0.56873 -6.43531,0.5791 -8.67772,0.0199 z m 52.68035,-25.18706 c -1.89384,-0.3146 -4.58422,-1.54177 -5.7515,-2.62345 -3.04221,-2.81913 -2.93411,-8.24128 0.22733,-11.40272 1.46295,-1.46295 4.67681,-3.03582 7.56898,-3.70427 l 0.95484,-0.22068 -1.18556,1.00719 c -1.66253,1.41242 -3.16443,4.59989 -3.36916,7.15035 -0.19008,2.36797 0.48634,5.16772 1.69791,7.02775 0.74507,1.14386 2.78883,2.48632 3.78517,2.48632 0.26063,0 0.56286,0.144 0.67164,0.32 0.23959,0.38767 -2.14881,0.36664 -4.59965,-0.0405 z m 79.9167,-2.25019 c -5.10182,-2.53594 -8.87425,-7.44531 -10.07584,-13.11249 -0.69529,-3.27927 -0.46367,-8.66936 0.49316,-11.47683 1.5786,-4.6318 5.16966,-9.16754 9.19336,-11.6118 1.07579,-0.65351 2.05795,-1.1882 2.18257,-1.1882 0.12462,0 -0.15419,0.45253 -0.61959,1.00562 -1.97536,2.34758 -3.46103,6.67422 -3.88022,11.30016 l -0.21648,2.38885 -2.43701,0.0927 c -2.8943,0.11008 -3.20023,0.61918 -1.07618,1.79088 2.25677,1.24491 2.98523,2.88578 3.48879,7.85865 0.6954,6.8674 2.20384,10.63778 5.35711,13.39015 1.40904,1.2299 0.67804,1.09713 -2.40967,-0.43767 z m -116.73142,-0.0809 c 0.62454,-1.05853 0.64117,-1.54526 0.5492,-16.08 -0.085,-13.43584 -0.15161,-15.09214 -0.643,-15.98965 -0.30149,-0.55067 -0.80047,-1.09804 -1.10885,-1.21638 -0.42671,-0.16374 -0.008,-0.5152 1.75346,-1.47084 1.27278,-0.69063 2.84919,-1.61926 3.50313,-2.06362 1.39478,-0.94778 2.16766,-1.02539 2.46905,-0.24794 0.11941,0.308 0.20738,8.552 0.1955,18.32 -0.0209,17.16131 -2.3e-4,17.79506 0.61243,18.8 l 0.63404,1.04 h -4.3045 -4.30451 z m 59.01436,0.48676 c -2.81534,-1.29937 -3.65329,-3.1309 -4.04224,-8.83519 -0.3301,-4.84131 -0.65475,-7.10617 -1.14672,-8 -0.63415,-1.15214 -1.84954,-2.05645 -3.11808,-2.32001 l -1.24585,-0.25885 1.62502,-1.16746 c 1.2483,-0.89681 1.87205,-1.66926 2.69064,-3.33204 0.95948,-1.949 1.07799,-2.4987 1.1898,-5.5192 0.13955,-3.76998 -0.27791,-6.23891 -1.40045,-8.28244 -0.8419,-1.53266 -0.64292,-1.64141 1.34878,-0.73717 4.27746,1.94199 6.7745,6.64774 5.86142,11.04605 -0.65545,3.15726 -2.5649,5.09204 -6.43536,6.52073 -3.08167,1.13752 -3.10228,1.66769 -0.0845,2.17297 2.60412,0.43602 3.7532,0.95521 4.97718,2.24885 1.44863,1.53108 1.63052,2.4526 1.83096,9.27613 0.16839,5.73263 0.25699,6.52212 0.79899,7.12 0.6083,0.671 0.60727,0.67242 -0.48,0.66541 -0.59928,-0.004 -1.6656,-0.27287 -2.3696,-0.59778 z m 107.25185,-0.56435 c 1.01462,-1.49213 1.41165,-2.66465 1.60561,-4.74166 0.26471,-2.83478 -0.48641,-5.19949 -2.12048,-6.67578 -1.69598,-1.53221 -2.87011,-2.09314 -8.33698,-3.98291 -2.552,-0.88217 -5.288,-1.85958 -6.08,-2.17204 -3.14943,-1.24249 -5.14596,-3.21605 -6.05811,-5.9884 -0.64566,-1.96239 -0.51248,-5.87579 0.26918,-7.91005 0.63912,-1.66331 2.33244,-4.25529 1.77695,-2.72 -0.45812,1.26616 -0.53358,3.95243 -0.14507,5.16414 1.00507,3.13464 2.90331,4.30587 11.90767,7.34711 8.43506,2.84897 10.99762,4.40754 12.58659,7.65528 0.78135,1.59703 0.84823,2.01751 0.72471,4.55643 -0.1039,2.1356 -0.3341,3.22811 -0.97346,4.61992 -0.90535,1.97084 -3.07476,4.36196 -4.73776,5.22192 l -1.0382,0.53688 z m -22.28343,-3.53958 0.008,-4.09126 1.26467,2.38294 c 0.69556,1.31061 2.02377,3.16549 2.95158,4.12195 1.39442,1.43749 1.5482,1.69988 0.88691,1.51334 -1.6498,-0.46538 -3.76251,-0.56222 -4.43334,-0.2032 -0.68576,0.367 -0.68665,0.3621 -0.67824,-3.72377 z m -164.12123,2.76079 c -0.79909,-1.01108 -2.85048,-2.21205 -3.77843,-2.21205 -0.81789,0 -0.15461,-0.49687 1.27237,-0.95313 0.67161,-0.21475 1.71561,-0.88494 2.32,-1.48933 l 1.09888,-1.09888 v 3.37067 c 0,1.85387 -0.036,3.3627 -0.08,3.35296 -0.044,-0.01 -0.41877,-0.44634 -0.83282,-0.97024 z M 279.83924,235.92 c -6.72018,-16.59552 -7.10951,-17.48859 -8.09114,-18.56 l -0.65967,-0.72 h 4.87393 4.87393 l -0.49815,0.7112 c -0.27398,0.39116 -0.49815,1.03854 -0.49815,1.43862 0,0.40007 1.57142,4.58003 3.49203,9.28879 4.63749,11.3697 4.97125,12.78494 4.0189,17.04139 -0.29535,1.32 -0.61143,3.228 -0.70242,4.24 -0.091,1.012 -0.26811,1.84 -0.39361,1.84 -0.12549,0 -3.01254,-6.876 -6.41565,-15.28 z m 94.81991,8.72 c 0.002,-1.056 0.0615,-1.44942 0.13275,-0.87427 0.0712,0.57515 0.0697,1.43915 -0.003,1.92 -0.073,0.48085 -0.13129,0.0103 -0.12949,-1.04573 z M 150.4,242.56 c -0.704,-0.3259 -1.45783,-0.60322 -1.67517,-0.61627 -0.57553,-0.0346 -4.20848,-3.51366 -5.03704,-4.82373 -1.36112,-2.15213 -1.85202,-4.29957 -1.71244,-7.49105 0.10521,-2.40549 0.29205,-3.27846 1.02022,-4.76679 1.50904,-3.08437 5.42946,-6.78628 8.37136,-7.90479 l 0.87171,-0.33143 -0.99735,1.13593 c -2.41919,2.75529 -3.33541,6.13812 -3.33631,12.31813 -8.7e-4,5.98334 0.89844,9.22156 3.33013,11.9911 1.1139,1.26866 0.99708,1.33705 -0.83511,0.4889 z m 17.76,0.0734 c 0,-0.17328 0.2388,-0.51269 0.53068,-0.75424 0.89884,-0.74387 2.28242,-4.0654 2.6832,-6.44147 0.51897,-3.07684 0.23775,-11.36511 -0.46054,-13.57313 -0.28795,-0.91048 -1.0155,-2.38648 -1.6168,-3.28 -0.60129,-0.89352 -1.02593,-1.62458 -0.94364,-1.62458 0.23586,0 1.71443,0.96022 3.89213,2.52767 1.97065,1.41841 4.04463,4.08114 4.88545,6.27233 0.63858,1.66414 0.92096,4.60928 0.61953,6.46138 -0.39648,2.43603 -1.37153,4.30738 -3.35811,6.44501 -2.03528,2.19003 -6.2319,4.86146 -6.2319,3.96703 z m 169.27999,-14.61767 c 0,-5.54099 -0.75864,-8.58935 -2.65189,-10.65575 -1.01899,-1.11218 -0.0577,-0.91144 2.29849,0.48 4.50945,2.66302 7.7134,7.9745 7.7134,12.78723 V 232 h -3.68 -3.68 z M 237.408,227.072 c -0.9583,-0.9583 -1.088,-1.28632 -1.088,-2.75164 0,-0.915 0.21797,-2.12299 0.48439,-2.68442 0.59769,-1.25953 2.25278,-3.29698 3.0055,-3.69983 0.50562,-0.2706 0.54823,-0.13893 0.44075,1.36217 -0.13438,1.87685 -0.10556,1.93321 1.71145,3.34686 1.50578,1.1715 1.86952,2.29255 1.2359,3.80902 -0.5366,1.28427 -1.32964,1.70584 -3.20896,1.70584 -1.27129,0 -1.65462,-0.16159 -2.58103,-1.088 z m -13.88909,-1.10385 c -1.37678,-1.37679 -1.53994,-2.92016 -0.51713,-4.89158 1.16589,-2.24722 1.11069,-3.51012 -0.20178,-4.61588 l -1.04,-0.8762 1.67824,0.16061 c 2.20599,0.21112 4.44366,1.59368 5.33278,3.2949 0.50142,0.95941 0.66898,1.86765 0.66898,3.62625 0,2.24543 -0.0449,2.38637 -1.04505,3.28 -1.47232,1.31552 -3.57298,1.32495 -4.87604,0.0219 z M 186.24,224.50878 c -0.528,-0.23439 -1.80312,-1.38734 -2.83359,-2.5621 -2.37229,-2.70447 -3.00559,-3.10809 -5.25634,-3.34999 L 176.32,218.4 l 1.64471,-1.01533 c 5.27297,-3.25516 11.38052,-2.69132 13.42569,1.23944 0.60135,1.15578 0.55713,2.06803 -0.17882,3.68928 -0.63869,1.40696 -2.23435,2.65302 -3.37158,2.63289 -0.352,-0.006 -1.072,-0.20311 -1.6,-0.4375 z m 182.8069,-3.19458 c -0.46553,-0.9492 -1.28752,-2.22821 -1.82666,-2.84225 -0.53914,-0.61404 -0.98051,-1.16943 -0.98083,-1.23419 -3.2e-4,-0.0648 0.86368,-0.069 1.92,-0.009 l 1.92058,0.10843 v 2.85157 c 0,1.56837 -0.042,2.85158 -0.0933,2.85158 -0.0513,0 -0.47422,-0.77661 -0.93975,-1.7258 z m -64.24663,-3.87386 c -0.53055,-0.63928 -0.27515,-0.87446 0.80839,-0.74442 0.85567,0.1027 0.85879,0.11163 0.23514,0.67215 -0.56774,0.51028 -0.6739,0.51764 -1.04353,0.0723 z M 159.12,214.48851 c 0.572,-0.071 1.508,-0.071 2.08,0 0.572,0.071 0.104,0.12907 -1.04,0.12907 -1.144,0 -1.612,-0.0581 -1.04,-0.12907 z"
         id="path319" /></g></g></svg>
